<svg width="41" height="41" viewBox="0 0 41 41" fill="none" xmlns="http://www.w3.org/2000/svg">
<path d="M21.0552 20.4616C21.1257 20.4359 21.2004 20.4167 21.2752 20.3954C21.0979 20.0003 20.9015 19.5903 20.6794 19.1483C16.6648 20.3377 12.821 20.3484 12.1356 20.3377C12.1292 20.3911 12.1292 20.4466 12.1292 20.5C12.1292 22.518 12.8552 24.4569 14.1749 25.9795C14.6148 25.2705 16.9467 21.7919 21.0552 20.4616ZM15.4241 27.1476C16.8954 28.2751 18.6529 28.8708 20.5 28.8708C21.604 28.8708 22.676 28.6573 23.6903 28.2409C23.5494 27.4273 23.0604 24.9502 21.935 22.0012C17.4058 23.6028 15.6953 26.618 15.4241 27.1476ZM25.956 14.1514C24.4377 12.8467 22.503 12.1292 20.5 12.1292C19.8935 12.1292 19.2849 12.1954 18.6849 12.3299C19.1227 12.9171 20.4616 14.7771 21.7193 17.0769C24.4591 16.0242 25.6976 14.5059 25.956 14.1514ZM19.8701 17.6471C18.5717 15.3579 17.22 13.4723 16.8484 12.9684C14.5699 14.0724 12.8936 16.1843 12.3363 18.6443H12.3726C13.2396 18.6443 16.321 18.5739 19.8701 17.6471ZM23.733 21.5592C24.726 24.3203 25.183 26.6137 25.3132 27.3483C27.1326 26.067 28.3754 24.1003 28.7491 21.9179C28.3776 21.8047 27.0365 21.446 25.3495 21.446C24.7986 21.446 24.2541 21.4844 23.733 21.5592ZM20.5 0C9.17802 0 0 9.17802 0 20.5C0 31.822 9.17802 41 20.5 41C31.822 41 41 31.822 41 20.5C41 9.17802 31.822 0 20.5 0ZM20.5 30.53C14.965 30.53 10.4657 26.0307 10.4657 20.5C10.4657 14.965 14.965 10.4657 20.5 10.4657C26.0329 10.4657 30.5322 14.9671 30.5322 20.5C30.5322 26.0307 26.0329 30.53 20.5 30.53ZM22.4689 18.5226C22.6546 18.907 22.8276 19.2849 22.9856 19.6565C23.0347 19.7782 23.0881 19.8978 23.1372 20.0195C23.7287 19.9491 24.3608 19.9149 25.0207 19.9149C26.8443 19.9149 28.3583 20.1818 28.8666 20.2822C28.8196 18.4671 28.1768 16.7032 27.0472 15.2853C26.7055 15.7252 25.3004 17.3417 22.4689 18.5226Z" fill="#122B45"/>
</svg>
