<svg width="350" height="350" viewBox="0 0 350 350" fill="none" xmlns="http://www.w3.org/2000/svg">
<rect width="350" height="350" rx="10" fill="#7F7DAE"/>
<mask id="path-2-outside-1" maskUnits="userSpaceOnUse" x="23" y="50" width="304" height="249" fill="black">
<rect fill="white" x="23" y="50" width="304" height="249"/>
<path fill-rule="evenodd" clip-rule="evenodd" d="M318.818 148.106C323.527 201.926 283.714 249.373 229.894 254.081C191.586 257.433 156.507 238.229 137.77 207.472C137.101 206.373 135.808 205.808 134.555 206.098C132.657 206.537 131.709 208.673 132.72 210.338C152.545 243.007 189.757 263.418 230.4 259.862C287.413 254.874 329.587 204.613 324.599 147.6C319.611 90.5871 269.35 48.4126 212.337 53.4006C167.317 57.3393 131.549 89.5084 120.949 130.94C120.466 132.828 121.996 134.597 123.94 134.464C125.223 134.376 126.294 133.458 126.615 132.213C136.674 93.1816 170.403 62.8944 212.843 59.1815C266.663 54.4728 314.11 94.2856 318.818 148.106ZM264.226 119.228C268.205 114.806 272.322 112.596 276.578 112.596C277.683 112.596 278.733 112.872 279.728 113.425C280.723 113.977 281.427 114.71 281.842 115.622C282.56 117.142 282.629 119.145 282.049 121.632C281.165 125.528 278.802 130.544 274.961 136.678C270.374 144.029 264.972 150.937 258.754 157.403C258.284 157.873 257.207 158.799 255.521 160.181C253.283 162.004 252.164 163.11 252.164 163.497C252.164 163.939 253.255 163.814 255.438 163.123C257.152 163.123 258.851 163.718 260.537 164.906C260.951 165.182 261.352 165.486 261.739 165.818C262.126 166.149 262.595 166.564 263.148 167.061C263.701 167.531 264.06 167.835 264.226 167.973C265.635 169.217 266.961 170.142 268.205 170.75C269.476 171.358 271.037 171.662 272.889 171.662C275.956 171.662 279.01 170.847 282.049 169.217C285.089 167.586 287.825 165.541 290.256 163.082C290.698 162.64 291.182 162.391 291.707 162.336C292.232 162.281 292.702 162.391 293.116 162.668C293.531 162.916 293.862 163.248 294.111 163.662C294.387 164.049 294.484 164.519 294.401 165.072C294.346 165.597 294.097 166.066 293.655 166.481C292.329 167.807 290.947 169.037 289.51 170.17C288.073 171.275 286.471 172.325 284.702 173.32C282.933 174.287 281.027 175.061 278.982 175.641C276.965 176.194 274.934 176.47 272.889 176.47C270.429 176.47 268.26 176.028 266.381 175.144C264.502 174.232 262.733 173.058 261.075 171.621C259.141 169.935 258.036 169.009 257.759 168.844C256.93 168.263 256.157 167.973 255.438 167.973C253.808 167.973 252.274 168.83 250.837 170.543C249.649 171.98 248.502 174.052 247.397 176.761C247.065 177.617 246.485 178.128 245.656 178.294C244.827 178.432 244.109 178.225 243.501 177.672C242.944 177.165 242.695 176.541 242.753 175.8C241.313 177.407 239.798 178.874 238.205 180.201C236.575 181.61 234.696 182.95 232.568 184.222C230.44 185.52 228.216 186.612 225.895 187.496C223.601 188.38 221.031 189.085 218.185 189.61C215.339 190.135 212.368 190.398 209.273 190.398C203.636 190.398 199.118 189.265 195.719 186.999C192.458 184.816 190.317 181.693 189.294 177.631C188.67 175.154 188.506 172.309 188.8 169.095C188.37 169.329 187.96 169.549 187.569 169.755C186.132 170.529 184.308 171.413 182.098 172.408C179.887 173.375 177.801 174.149 175.839 174.73C173.877 175.282 171.625 175.766 169.082 176.18C166.568 176.595 164.026 176.802 161.456 176.802C156.482 176.802 152.613 175.448 149.85 172.74C148.369 171.232 147.324 169.466 146.714 167.441C130.487 171.911 115.161 178.43 100.736 186.999C99.3825 187.8 98.36 188.408 97.6692 188.823C96.9784 189.237 96.2046 189.762 95.348 190.398C94.4913 191.033 93.8696 191.544 93.4827 191.931C93.1235 192.318 92.6814 192.885 92.1563 193.631C91.6313 194.377 91.2721 195.054 91.0786 195.662C90.8852 196.27 90.6365 197.113 90.3325 198.19C90.0286 199.296 89.7937 200.387 89.6279 201.465C89.4621 202.57 89.2548 203.979 89.0061 205.693C86.5468 219.344 83.5762 231.779 80.0944 242.998C75.0098 259.246 69.2759 271.985 62.8926 281.215C55.7079 291.605 48.1087 296.8 40.095 296.8C37.6357 296.8 35.4112 296.33 33.4216 295.391C31.432 294.451 29.7878 293.125 28.489 291.411C26.0573 288.151 24.8967 283.702 25.0072 278.065C25.1177 272.648 26.3751 266.569 28.7792 259.827C31.2109 253.112 34.6927 246.134 39.2246 238.894C43.6736 231.737 49.0621 224.649 55.3901 217.63C61.7458 210.611 68.9028 203.938 76.8613 197.61C76.9165 197.582 76.9994 197.513 77.11 197.403C78.1324 196.601 78.8785 196.007 79.3483 195.62C79.8457 195.233 80.4812 194.695 81.255 194.004C82.0563 193.341 82.6228 192.829 82.9544 192.47C83.3136 192.111 83.7696 191.627 84.3223 191.019C84.8749 190.411 85.2618 189.873 85.4829 189.403C85.7316 188.961 86.0217 188.422 86.3533 187.786C86.7126 187.151 86.9613 186.501 87.0994 185.838C87.2652 185.203 87.4172 184.484 87.5554 183.683C87.6935 182.909 87.8041 182.066 87.887 181.154C89.7937 165.376 90.747 149.998 90.747 135.02C90.7194 134.357 90.9405 133.791 91.4102 133.321C91.88 132.851 92.4465 132.602 93.1097 132.575C93.7729 132.575 94.3394 132.823 94.8091 133.321C95.3065 133.791 95.5552 134.357 95.5552 135.02C95.5552 148.34 94.7401 162.364 93.1097 177.092C92.9715 178.336 92.861 179.303 92.7781 179.994C92.7228 180.684 92.709 181.389 92.7366 182.108C92.7643 182.826 92.8334 183.323 92.9439 183.6C93.0544 183.904 93.2617 184.152 93.5656 184.346C93.8696 184.539 94.2288 184.581 94.6433 184.47C95.0578 184.387 95.6105 184.194 96.3013 183.89C97.0198 183.586 97.7935 183.185 98.6225 182.688C99.4792 182.191 100.515 181.555 101.731 180.781C115.672 172.928 130.455 166.878 146.08 162.632C146.095 162.133 146.136 161.634 146.202 161.134C146.478 159.006 147.128 156.934 148.15 154.916C148.952 153.562 149.919 152.471 151.052 151.642C152.212 150.785 153.497 150.357 154.907 150.357C156.15 150.357 157.186 150.744 158.015 151.517C158.761 152.208 159.231 153.12 159.425 154.253C159.673 155.884 159.342 157.721 158.43 159.766C158.098 160.457 157.656 161.12 157.103 161.756C156.551 162.364 156.012 162.875 155.487 163.289C154.962 163.676 154.451 164.104 153.953 164.574C153.456 165.044 153.069 165.486 152.793 165.901C152.544 166.315 152.433 166.813 152.461 167.393C152.516 167.973 152.779 168.609 153.249 169.3C155.045 171.096 157.78 171.994 161.456 171.994C163.805 171.994 166.112 171.814 168.378 171.455C170.671 171.068 172.702 170.626 174.471 170.129C176.267 169.604 178.188 168.885 180.233 167.973C182.277 167.061 183.991 166.246 185.372 165.528C186.63 164.849 188.128 163.998 189.866 162.975C190.732 159.051 191.868 155.383 193.273 151.973C193.329 151.863 193.398 151.697 193.481 151.476C194.586 148.989 194.821 147.497 194.185 146.999C193.55 146.502 190.994 146.336 186.517 146.502C185.882 146.557 185.343 146.433 184.901 146.129C184.458 145.825 184.182 145.438 184.072 144.968C183.933 144.499 183.892 144.029 183.947 143.559C184.002 143.062 184.237 142.633 184.652 142.274C185.066 141.915 185.578 141.721 186.186 141.694L191.74 141.321C192.983 141.321 194.089 141.224 195.056 141.031C196.023 140.81 196.824 140.547 197.46 140.243C198.123 139.911 198.759 139.428 199.367 138.792C199.975 138.157 200.472 137.563 200.859 137.01C201.246 136.43 201.729 135.642 202.31 134.647C203.94 132.022 205.612 129.577 207.325 127.311C209.923 123.856 212.327 121.107 214.537 119.062C215.477 118.178 216.209 117.528 216.734 117.114C217.259 116.699 217.922 116.313 218.724 115.953C219.553 115.566 220.382 115.373 221.211 115.373C221.791 115.373 222.371 115.511 222.952 115.787C223.532 116.036 224.002 116.395 224.361 116.865C224.941 117.667 225.19 118.675 225.107 119.891C224.997 121.356 224.347 123.331 223.159 125.818C222.054 128.112 220.492 130.875 218.475 134.108C217.895 135.048 217.453 135.78 217.149 136.305C216.845 136.803 216.596 137.314 216.403 137.839C216.237 138.336 216.195 138.696 216.278 138.917C216.389 139.11 216.61 139.29 216.941 139.455C217.273 139.594 217.743 139.649 218.351 139.621C218.959 139.594 219.746 139.525 220.713 139.414L227.677 138.958H227.801C228.575 138.93 229.197 139.193 229.667 139.746C230.164 140.298 230.357 140.948 230.247 141.694C230.164 142.412 229.791 142.979 229.128 143.393L225.273 145.797C224.554 146.267 223.795 146.336 222.993 146.005C222.219 145.645 221.75 145.037 221.584 144.181L216.278 144.512C215.532 144.568 214.952 144.609 214.537 144.637C214.123 144.664 213.667 144.733 213.169 144.844C212.672 144.927 212.327 144.982 212.133 145.01C211.967 145.01 211.691 145.12 211.304 145.341C210.945 145.562 210.724 145.701 210.641 145.756C210.558 145.811 210.337 146.046 209.978 146.461C209.646 146.847 209.439 147.124 209.356 147.29C209.273 147.428 209.011 147.815 208.569 148.45C208.126 149.086 207.795 149.555 207.574 149.859C205.418 152.761 203.346 155.441 201.356 157.901C199.477 160.25 197.861 162.17 196.507 163.662C195.899 164.298 195.387 164.906 194.973 165.486C194.586 166.066 194.282 166.688 194.061 167.351C193.84 168.015 193.674 168.609 193.564 169.134C193.453 169.659 193.412 170.363 193.439 171.248C193.495 172.132 193.55 172.906 193.605 173.569L193.978 176.429C194.697 179.303 196.161 181.486 198.372 182.978C200.969 184.719 204.603 185.589 209.273 185.589C212.092 185.589 214.786 185.355 217.356 184.885C219.953 184.415 222.275 183.793 224.32 183.02C226.392 182.246 228.368 181.279 230.247 180.118C232.154 178.985 233.825 177.797 235.262 176.553C236.699 175.31 238.081 173.928 239.407 172.408C240.761 170.861 241.908 169.396 242.848 168.015C243.587 166.958 244.31 165.838 245.017 164.652C245.708 161.783 246.474 158.952 247.314 156.16C249.221 149.915 251.694 142.744 254.734 134.647C257.746 128.043 260.91 122.903 264.226 119.228ZM277.034 117.404H276.578C273.732 117.404 270.802 119.09 267.79 122.461C264.806 125.749 261.918 130.475 259.127 136.637C255.922 143.739 254.305 148.464 254.278 150.813C254.25 152.885 255.397 152.913 257.718 150.896C261.006 148.049 265.4 142.468 270.899 134.15C274.436 128.457 276.592 123.926 277.365 120.554C277.697 119.173 277.738 118.219 277.49 117.694C277.462 117.667 277.434 117.625 277.407 117.57V117.487C277.407 117.459 277.365 117.445 277.282 117.445C277.227 117.418 277.144 117.404 277.034 117.404ZM219.677 121.3C219.29 122.544 219 123.359 218.807 123.746C217.48 126.537 215.394 130.115 212.548 134.481C212.437 134.647 212.23 134.937 211.926 135.352C211.622 135.766 211.415 136.043 211.304 136.181C211.221 136.291 211.056 136.526 210.807 136.886C210.558 137.217 210.379 137.438 210.268 137.549C210.157 137.659 209.992 137.853 209.771 138.129C209.55 138.378 209.356 138.544 209.19 138.626C209.052 138.709 208.873 138.834 208.651 139C208.43 139.165 208.223 139.276 208.03 139.331C207.836 139.386 207.615 139.455 207.366 139.538C207.118 139.594 206.855 139.621 206.579 139.621C204.783 139.621 206.234 136.595 210.931 130.544C211.042 130.378 211.125 130.267 211.18 130.212C213.584 126.979 215.795 124.437 217.812 122.585C218.061 122.364 218.282 122.185 218.475 122.046C218.669 121.881 218.807 121.77 218.89 121.715C218.973 121.66 219.097 121.591 219.263 121.508C219.456 121.397 219.594 121.328 219.677 121.3ZM202.724 146.295C203.221 146.267 203.221 146.737 202.724 147.704C202.227 148.644 201.467 149.818 200.444 151.227C199.035 152.747 198.386 153.037 198.496 152.098C198.579 151.573 198.897 150.675 199.45 149.403C200.279 147.497 201.273 146.474 202.434 146.336C202.544 146.309 202.641 146.295 202.724 146.295ZM83.742 207.143C84.6815 202.114 84.419 199.586 82.9544 199.558C82.0425 199.558 80.6194 200.442 78.6851 202.211C71.224 208.235 64.5091 214.591 58.5403 221.278C52.5991 227.965 47.5146 234.68 43.2867 241.423C39.0035 248.303 35.7151 254.949 33.4216 261.36C31.128 267.771 29.926 273.367 29.8154 278.147C29.7325 282.679 30.5753 286.147 32.3439 288.551C34.0571 290.845 36.6409 291.992 40.095 291.992C46.4231 291.992 52.7097 287.488 58.9548 278.479C65.0618 269.664 70.5747 257.367 75.4934 241.588C78.616 231.585 81.3655 220.104 83.742 207.143ZM154.036 157.776C154.368 157.03 154.547 156.257 154.575 155.455C153.691 155.676 152.931 156.312 152.295 157.362C152.074 157.832 151.922 158.274 151.839 158.688C151.673 159.545 151.798 159.973 152.212 159.973C152.71 160.001 153.318 159.269 154.036 157.776Z"/>
</mask>
<path fill-rule="evenodd" clip-rule="evenodd" d="M318.818 148.106C323.527 201.926 283.714 249.373 229.894 254.081C191.586 257.433 156.507 238.229 137.77 207.472C137.101 206.373 135.808 205.808 134.555 206.098C132.657 206.537 131.709 208.673 132.72 210.338C152.545 243.007 189.757 263.418 230.4 259.862C287.413 254.874 329.587 204.613 324.599 147.6C319.611 90.5871 269.35 48.4126 212.337 53.4006C167.317 57.3393 131.549 89.5084 120.949 130.94C120.466 132.828 121.996 134.597 123.94 134.464C125.223 134.376 126.294 133.458 126.615 132.213C136.674 93.1816 170.403 62.8944 212.843 59.1815C266.663 54.4728 314.11 94.2856 318.818 148.106ZM264.226 119.228C268.205 114.806 272.322 112.596 276.578 112.596C277.683 112.596 278.733 112.872 279.728 113.425C280.723 113.977 281.427 114.71 281.842 115.622C282.56 117.142 282.629 119.145 282.049 121.632C281.165 125.528 278.802 130.544 274.961 136.678C270.374 144.029 264.972 150.937 258.754 157.403C258.284 157.873 257.207 158.799 255.521 160.181C253.283 162.004 252.164 163.11 252.164 163.497C252.164 163.939 253.255 163.814 255.438 163.123C257.152 163.123 258.851 163.718 260.537 164.906C260.951 165.182 261.352 165.486 261.739 165.818C262.126 166.149 262.595 166.564 263.148 167.061C263.701 167.531 264.06 167.835 264.226 167.973C265.635 169.217 266.961 170.142 268.205 170.75C269.476 171.358 271.037 171.662 272.889 171.662C275.956 171.662 279.01 170.847 282.049 169.217C285.089 167.586 287.825 165.541 290.256 163.082C290.698 162.64 291.182 162.391 291.707 162.336C292.232 162.281 292.702 162.391 293.116 162.668C293.531 162.916 293.862 163.248 294.111 163.662C294.387 164.049 294.484 164.519 294.401 165.072C294.346 165.597 294.097 166.066 293.655 166.481C292.329 167.807 290.947 169.037 289.51 170.17C288.073 171.275 286.471 172.325 284.702 173.32C282.933 174.287 281.027 175.061 278.982 175.641C276.965 176.194 274.934 176.47 272.889 176.47C270.429 176.47 268.26 176.028 266.381 175.144C264.502 174.232 262.733 173.058 261.075 171.621C259.141 169.935 258.036 169.009 257.759 168.844C256.93 168.263 256.157 167.973 255.438 167.973C253.808 167.973 252.274 168.83 250.837 170.543C249.649 171.98 248.502 174.052 247.397 176.761C247.065 177.617 246.485 178.128 245.656 178.294C244.827 178.432 244.109 178.225 243.501 177.672C242.944 177.165 242.695 176.541 242.753 175.8C241.313 177.407 239.798 178.874 238.205 180.201C236.575 181.61 234.696 182.95 232.568 184.222C230.44 185.52 228.216 186.612 225.895 187.496C223.601 188.38 221.031 189.085 218.185 189.61C215.339 190.135 212.368 190.398 209.273 190.398C203.636 190.398 199.118 189.265 195.719 186.999C192.458 184.816 190.317 181.693 189.294 177.631C188.67 175.154 188.506 172.309 188.8 169.095C188.37 169.329 187.96 169.549 187.569 169.755C186.132 170.529 184.308 171.413 182.098 172.408C179.887 173.375 177.801 174.149 175.839 174.73C173.877 175.282 171.625 175.766 169.082 176.18C166.568 176.595 164.026 176.802 161.456 176.802C156.482 176.802 152.613 175.448 149.85 172.74C148.369 171.232 147.324 169.466 146.714 167.441C130.487 171.911 115.161 178.43 100.736 186.999C99.3825 187.8 98.36 188.408 97.6692 188.823C96.9784 189.237 96.2046 189.762 95.348 190.398C94.4913 191.033 93.8696 191.544 93.4827 191.931C93.1235 192.318 92.6814 192.885 92.1563 193.631C91.6313 194.377 91.2721 195.054 91.0786 195.662C90.8852 196.27 90.6365 197.113 90.3325 198.19C90.0286 199.296 89.7937 200.387 89.6279 201.465C89.4621 202.57 89.2548 203.979 89.0061 205.693C86.5468 219.344 83.5762 231.779 80.0944 242.998C75.0098 259.246 69.2759 271.985 62.8926 281.215C55.7079 291.605 48.1087 296.8 40.095 296.8C37.6357 296.8 35.4112 296.33 33.4216 295.391C31.432 294.451 29.7878 293.125 28.489 291.411C26.0573 288.151 24.8967 283.702 25.0072 278.065C25.1177 272.648 26.3751 266.569 28.7792 259.827C31.2109 253.112 34.6927 246.134 39.2246 238.894C43.6736 231.737 49.0621 224.649 55.3901 217.63C61.7458 210.611 68.9028 203.938 76.8613 197.61C76.9165 197.582 76.9994 197.513 77.11 197.403C78.1324 196.601 78.8785 196.007 79.3483 195.62C79.8457 195.233 80.4812 194.695 81.255 194.004C82.0563 193.341 82.6228 192.829 82.9544 192.47C83.3136 192.111 83.7696 191.627 84.3223 191.019C84.8749 190.411 85.2618 189.873 85.4829 189.403C85.7316 188.961 86.0217 188.422 86.3533 187.786C86.7126 187.151 86.9613 186.501 87.0994 185.838C87.2652 185.203 87.4172 184.484 87.5554 183.683C87.6935 182.909 87.8041 182.066 87.887 181.154C89.7937 165.376 90.747 149.998 90.747 135.02C90.7194 134.357 90.9405 133.791 91.4102 133.321C91.88 132.851 92.4465 132.602 93.1097 132.575C93.7729 132.575 94.3394 132.823 94.8091 133.321C95.3065 133.791 95.5552 134.357 95.5552 135.02C95.5552 148.34 94.7401 162.364 93.1097 177.092C92.9715 178.336 92.861 179.303 92.7781 179.994C92.7228 180.684 92.709 181.389 92.7366 182.108C92.7643 182.826 92.8334 183.323 92.9439 183.6C93.0544 183.904 93.2617 184.152 93.5656 184.346C93.8696 184.539 94.2288 184.581 94.6433 184.47C95.0578 184.387 95.6105 184.194 96.3013 183.89C97.0198 183.586 97.7935 183.185 98.6225 182.688C99.4792 182.191 100.515 181.555 101.731 180.781C115.672 172.928 130.455 166.878 146.08 162.632C146.095 162.133 146.136 161.634 146.202 161.134C146.478 159.006 147.128 156.934 148.15 154.916C148.952 153.562 149.919 152.471 151.052 151.642C152.212 150.785 153.497 150.357 154.907 150.357C156.15 150.357 157.186 150.744 158.015 151.517C158.761 152.208 159.231 153.12 159.425 154.253C159.673 155.884 159.342 157.721 158.43 159.766C158.098 160.457 157.656 161.12 157.103 161.756C156.551 162.364 156.012 162.875 155.487 163.289C154.962 163.676 154.451 164.104 153.953 164.574C153.456 165.044 153.069 165.486 152.793 165.901C152.544 166.315 152.433 166.813 152.461 167.393C152.516 167.973 152.779 168.609 153.249 169.3C155.045 171.096 157.78 171.994 161.456 171.994C163.805 171.994 166.112 171.814 168.378 171.455C170.671 171.068 172.702 170.626 174.471 170.129C176.267 169.604 178.188 168.885 180.233 167.973C182.277 167.061 183.991 166.246 185.372 165.528C186.63 164.849 188.128 163.998 189.866 162.975C190.732 159.051 191.868 155.383 193.273 151.973C193.329 151.863 193.398 151.697 193.481 151.476C194.586 148.989 194.821 147.497 194.185 146.999C193.55 146.502 190.994 146.336 186.517 146.502C185.882 146.557 185.343 146.433 184.901 146.129C184.458 145.825 184.182 145.438 184.072 144.968C183.933 144.499 183.892 144.029 183.947 143.559C184.002 143.062 184.237 142.633 184.652 142.274C185.066 141.915 185.578 141.721 186.186 141.694L191.74 141.321C192.983 141.321 194.089 141.224 195.056 141.031C196.023 140.81 196.824 140.547 197.46 140.243C198.123 139.911 198.759 139.428 199.367 138.792C199.975 138.157 200.472 137.563 200.859 137.01C201.246 136.43 201.729 135.642 202.31 134.647C203.94 132.022 205.612 129.577 207.325 127.311C209.923 123.856 212.327 121.107 214.537 119.062C215.477 118.178 216.209 117.528 216.734 117.114C217.259 116.699 217.922 116.313 218.724 115.953C219.553 115.566 220.382 115.373 221.211 115.373C221.791 115.373 222.371 115.511 222.952 115.787C223.532 116.036 224.002 116.395 224.361 116.865C224.941 117.667 225.19 118.675 225.107 119.891C224.997 121.356 224.347 123.331 223.159 125.818C222.054 128.112 220.492 130.875 218.475 134.108C217.895 135.048 217.453 135.78 217.149 136.305C216.845 136.803 216.596 137.314 216.403 137.839C216.237 138.336 216.195 138.696 216.278 138.917C216.389 139.11 216.61 139.29 216.941 139.455C217.273 139.594 217.743 139.649 218.351 139.621C218.959 139.594 219.746 139.525 220.713 139.414L227.677 138.958H227.801C228.575 138.93 229.197 139.193 229.667 139.746C230.164 140.298 230.357 140.948 230.247 141.694C230.164 142.412 229.791 142.979 229.128 143.393L225.273 145.797C224.554 146.267 223.795 146.336 222.993 146.005C222.219 145.645 221.75 145.037 221.584 144.181L216.278 144.512C215.532 144.568 214.952 144.609 214.537 144.637C214.123 144.664 213.667 144.733 213.169 144.844C212.672 144.927 212.327 144.982 212.133 145.01C211.967 145.01 211.691 145.12 211.304 145.341C210.945 145.562 210.724 145.701 210.641 145.756C210.558 145.811 210.337 146.046 209.978 146.461C209.646 146.847 209.439 147.124 209.356 147.29C209.273 147.428 209.011 147.815 208.569 148.45C208.126 149.086 207.795 149.555 207.574 149.859C205.418 152.761 203.346 155.441 201.356 157.901C199.477 160.25 197.861 162.17 196.507 163.662C195.899 164.298 195.387 164.906 194.973 165.486C194.586 166.066 194.282 166.688 194.061 167.351C193.84 168.015 193.674 168.609 193.564 169.134C193.453 169.659 193.412 170.363 193.439 171.248C193.495 172.132 193.55 172.906 193.605 173.569L193.978 176.429C194.697 179.303 196.161 181.486 198.372 182.978C200.969 184.719 204.603 185.589 209.273 185.589C212.092 185.589 214.786 185.355 217.356 184.885C219.953 184.415 222.275 183.793 224.32 183.02C226.392 182.246 228.368 181.279 230.247 180.118C232.154 178.985 233.825 177.797 235.262 176.553C236.699 175.31 238.081 173.928 239.407 172.408C240.761 170.861 241.908 169.396 242.848 168.015C243.587 166.958 244.31 165.838 245.017 164.652C245.708 161.783 246.474 158.952 247.314 156.16C249.221 149.915 251.694 142.744 254.734 134.647C257.746 128.043 260.91 122.903 264.226 119.228ZM277.034 117.404H276.578C273.732 117.404 270.802 119.09 267.79 122.461C264.806 125.749 261.918 130.475 259.127 136.637C255.922 143.739 254.305 148.464 254.278 150.813C254.25 152.885 255.397 152.913 257.718 150.896C261.006 148.049 265.4 142.468 270.899 134.15C274.436 128.457 276.592 123.926 277.365 120.554C277.697 119.173 277.738 118.219 277.49 117.694C277.462 117.667 277.434 117.625 277.407 117.57V117.487C277.407 117.459 277.365 117.445 277.282 117.445C277.227 117.418 277.144 117.404 277.034 117.404ZM219.677 121.3C219.29 122.544 219 123.359 218.807 123.746C217.48 126.537 215.394 130.115 212.548 134.481C212.437 134.647 212.23 134.937 211.926 135.352C211.622 135.766 211.415 136.043 211.304 136.181C211.221 136.291 211.056 136.526 210.807 136.886C210.558 137.217 210.379 137.438 210.268 137.549C210.157 137.659 209.992 137.853 209.771 138.129C209.55 138.378 209.356 138.544 209.19 138.626C209.052 138.709 208.873 138.834 208.651 139C208.43 139.165 208.223 139.276 208.03 139.331C207.836 139.386 207.615 139.455 207.366 139.538C207.118 139.594 206.855 139.621 206.579 139.621C204.783 139.621 206.234 136.595 210.931 130.544C211.042 130.378 211.125 130.267 211.18 130.212C213.584 126.979 215.795 124.437 217.812 122.585C218.061 122.364 218.282 122.185 218.475 122.046C218.669 121.881 218.807 121.77 218.89 121.715C218.973 121.66 219.097 121.591 219.263 121.508C219.456 121.397 219.594 121.328 219.677 121.3ZM202.724 146.295C203.221 146.267 203.221 146.737 202.724 147.704C202.227 148.644 201.467 149.818 200.444 151.227C199.035 152.747 198.386 153.037 198.496 152.098C198.579 151.573 198.897 150.675 199.45 149.403C200.279 147.497 201.273 146.474 202.434 146.336C202.544 146.309 202.641 146.295 202.724 146.295ZM83.742 207.143C84.6815 202.114 84.419 199.586 82.9544 199.558C82.0425 199.558 80.6194 200.442 78.6851 202.211C71.224 208.235 64.5091 214.591 58.5403 221.278C52.5991 227.965 47.5146 234.68 43.2867 241.423C39.0035 248.303 35.7151 254.949 33.4216 261.36C31.128 267.771 29.926 273.367 29.8154 278.147C29.7325 282.679 30.5753 286.147 32.3439 288.551C34.0571 290.845 36.6409 291.992 40.095 291.992C46.4231 291.992 52.7097 287.488 58.9548 278.479C65.0618 269.664 70.5747 257.367 75.4934 241.588C78.616 231.585 81.3655 220.104 83.742 207.143ZM154.036 157.776C154.368 157.03 154.547 156.257 154.575 155.455C153.691 155.676 152.931 156.312 152.295 157.362C152.074 157.832 151.922 158.274 151.839 158.688C151.673 159.545 151.798 159.973 152.212 159.973C152.71 160.001 153.318 159.269 154.036 157.776Z" fill="white"/>
<path d="M229.894 254.081L229.72 252.089L229.894 254.081ZM137.77 207.472L136.062 208.513L136.062 208.513L137.77 207.472ZM134.555 206.098L134.104 204.149L134.104 204.15L134.555 206.098ZM132.72 210.338L134.43 209.301L134.43 209.301L132.72 210.338ZM230.4 259.862L230.226 257.87L230.226 257.87L230.4 259.862ZM212.337 53.4006L212.511 55.393L212.511 55.393L212.337 53.4006ZM120.949 130.94L119.012 130.444L119.012 130.444L120.949 130.94ZM123.94 134.464L123.803 132.468L123.803 132.468L123.94 134.464ZM126.615 132.213L124.679 131.714L124.679 131.714L126.615 132.213ZM212.843 59.1815L212.668 57.1891L212.843 59.1815ZM264.226 119.228L265.711 120.568L265.712 120.566L264.226 119.228ZM279.728 113.425L280.699 111.677L280.699 111.677L279.728 113.425ZM281.842 115.622L280.021 116.449L280.027 116.463L280.034 116.476L281.842 115.622ZM282.049 121.632L280.101 121.177L280.099 121.189L282.049 121.632ZM274.961 136.678L273.266 135.617L273.264 135.619L274.961 136.678ZM258.754 157.403L260.168 158.818L260.182 158.804L260.196 158.79L258.754 157.403ZM255.521 160.181L256.784 161.731L256.789 161.727L255.521 160.181ZM255.438 163.123V161.123H255.129L254.835 161.217L255.438 163.123ZM260.537 164.906L259.384 166.541L259.406 166.555L259.427 166.57L260.537 164.906ZM261.739 165.818L263.04 164.299L263.04 164.299L261.739 165.818ZM263.148 167.061L261.81 168.548L261.831 168.567L261.853 168.585L263.148 167.061ZM264.226 167.973L265.549 166.473L265.528 166.455L265.506 166.437L264.226 167.973ZM268.205 170.75L267.326 172.547L267.334 172.551L267.342 172.555L268.205 170.75ZM282.049 169.217L282.995 170.979L282.995 170.979L282.049 169.217ZM290.256 163.082L288.842 161.668L288.834 161.676L290.256 163.082ZM291.707 162.336L291.498 160.347L291.498 160.347L291.707 162.336ZM293.116 162.668L292.007 164.332L292.047 164.358L292.087 164.383L293.116 162.668ZM294.111 163.662L292.396 164.691L292.437 164.76L292.484 164.825L294.111 163.662ZM294.401 165.072L292.423 164.775L292.417 164.819L292.412 164.862L294.401 165.072ZM293.655 166.481L292.287 165.022L292.264 165.044L292.241 165.067L293.655 166.481ZM289.51 170.17L290.73 171.755L290.739 171.748L290.748 171.741L289.51 170.17ZM284.702 173.32L285.662 175.075L285.672 175.069L285.682 175.063L284.702 173.32ZM278.982 175.641L279.51 177.57L279.519 177.568L279.528 177.565L278.982 175.641ZM266.381 175.144L265.508 176.943L265.519 176.949L265.529 176.954L266.381 175.144ZM261.075 171.621L259.761 173.129L259.766 173.132L261.075 171.621ZM257.759 168.844L256.612 170.482L256.67 170.522L256.73 170.559L257.759 168.844ZM250.837 170.543L249.305 169.258L249.296 169.269L250.837 170.543ZM247.397 176.761L245.545 176.005L245.538 176.022L245.532 176.039L247.397 176.761ZM245.656 178.294L245.985 180.267L246.017 180.262L246.048 180.255L245.656 178.294ZM243.501 177.672L242.152 179.149L242.155 179.152L243.501 177.672ZM242.753 175.8L244.747 175.955L245.203 170.065L241.263 174.466L242.753 175.8ZM238.205 180.201L236.925 178.664L236.911 178.676L236.897 178.688L238.205 180.201ZM232.568 184.222L231.542 182.505L231.534 182.509L231.526 182.514L232.568 184.222ZM225.895 187.496L225.183 185.627L225.175 185.63L225.895 187.496ZM218.185 189.61L217.822 187.643L217.822 187.643L218.185 189.61ZM195.719 186.999L194.606 188.661L194.61 188.663L195.719 186.999ZM189.294 177.631L191.234 177.143L191.234 177.142L189.294 177.631ZM188.8 169.095L190.792 169.278L191.133 165.549L187.844 167.338L188.8 169.095ZM187.569 169.755L186.635 167.987L186.628 167.991L186.621 167.995L187.569 169.755ZM182.098 172.408L182.899 174.241L182.909 174.236L182.919 174.232L182.098 172.408ZM175.839 174.73L176.381 176.655L176.394 176.651L176.406 176.647L175.839 174.73ZM169.082 176.18L168.761 174.206L168.757 174.207L169.082 176.18ZM149.85 172.74L148.423 174.141L148.436 174.155L148.45 174.168L149.85 172.74ZM146.714 167.441L148.629 166.864L148.065 164.994L146.183 165.513L146.714 167.441ZM100.736 186.999L101.755 188.72L101.758 188.718L100.736 186.999ZM95.348 190.398L96.5397 192.004L96.5397 192.004L95.348 190.398ZM93.4827 191.931L92.0685 190.517L92.0423 190.543L92.0172 190.57L93.4827 191.931ZM92.1563 193.631L90.5207 192.48L90.5207 192.48L92.1563 193.631ZM90.3325 198.19L88.4076 197.647L88.4041 197.66L90.3325 198.19ZM89.6279 201.465L87.6511 201.161L87.65 201.168L89.6279 201.465ZM89.0061 205.693L90.9744 206.047L90.9805 206.014L90.9854 205.98L89.0061 205.693ZM80.0944 242.998L82.0031 243.595L82.0045 243.591L80.0944 242.998ZM62.8926 281.215L61.2477 280.077L61.2476 280.077L62.8926 281.215ZM33.4216 295.391L34.2756 293.582L34.2756 293.582L33.4216 295.391ZM28.489 291.411L26.8858 292.607L26.8905 292.613L26.8952 292.62L28.489 291.411ZM25.0072 278.065L23.0076 278.024L23.0076 278.025L25.0072 278.065ZM28.7792 259.827L26.8987 259.146L26.8953 259.155L28.7792 259.827ZM39.2246 238.894L40.9199 239.955L40.9232 239.95L39.2246 238.894ZM55.3901 217.63L53.9076 216.288L53.9047 216.291L55.3901 217.63ZM76.8613 197.61L75.9668 195.821L75.78 195.915L75.6165 196.045L76.8613 197.61ZM77.11 197.403L75.8762 195.829L75.7811 195.903L75.6957 195.989L77.11 197.403ZM79.3483 195.62L78.1204 194.042L78.0984 194.059L78.0768 194.076L79.3483 195.62ZM81.255 194.004L79.9798 192.463L79.9509 192.487L79.9229 192.512L81.255 194.004ZM82.9544 192.47L81.5402 191.056L81.5119 191.084L81.4848 191.114L82.9544 192.47ZM84.3223 191.019L85.8021 192.365L85.8021 192.365L84.3223 191.019ZM85.4829 189.403L83.7397 188.422L83.7041 188.486L83.6732 188.551L85.4829 189.403ZM86.3533 187.786L84.6122 186.802L84.5957 186.831L84.5801 186.861L86.3533 187.786ZM87.0994 185.838L85.1642 185.333L85.1516 185.381L85.1415 185.43L87.0994 185.838ZM87.5554 183.683L85.5865 183.331L85.5845 183.343L87.5554 183.683ZM87.887 181.154L85.9014 180.914L85.8979 180.944L85.8952 180.973L87.887 181.154ZM90.747 135.02H92.747V134.979L92.7453 134.937L90.747 135.02ZM91.4102 133.321L89.996 131.907L89.996 131.907L91.4102 133.321ZM93.1097 132.575V130.575H93.068L93.0264 130.576L93.1097 132.575ZM94.8091 133.321L93.3551 134.694L93.3943 134.736L93.4359 134.775L94.8091 133.321ZM93.1097 177.092L95.0974 177.313L95.0975 177.312L93.1097 177.092ZM92.7781 179.994L90.7923 179.755L90.7876 179.795L90.7845 179.834L92.7781 179.994ZM92.7366 182.108L90.7381 182.184L90.7381 182.184L92.7366 182.108ZM92.9439 183.6L94.8235 182.916L94.8126 182.886L94.8008 182.857L92.9439 183.6ZM94.6433 184.47L94.2512 182.509L94.1891 182.521L94.128 182.538L94.6433 184.47ZM96.3013 183.89L95.5221 182.048L95.5089 182.054L95.4959 182.059L96.3013 183.89ZM98.6225 182.688L97.6183 180.958L97.6059 180.966L97.5935 180.973L98.6225 182.688ZM101.731 180.781L100.75 179.039L100.703 179.065L100.658 179.094L101.731 180.781ZM146.08 162.632L146.604 164.562L148.032 164.174L148.079 162.695L146.08 162.632ZM146.202 161.134L148.185 161.395L148.185 161.391L146.202 161.134ZM148.15 154.916L146.429 153.898L146.396 153.954L146.366 154.012L148.15 154.916ZM151.052 151.642L152.233 153.256L152.239 153.251L151.052 151.642ZM158.015 151.517L156.651 152.98L156.656 152.985L158.015 151.517ZM159.425 154.253L161.402 153.952L161.399 153.934L161.396 153.917L159.425 154.253ZM158.43 159.766L160.233 160.631L160.245 160.606L160.256 160.581L158.43 159.766ZM157.103 161.756L158.583 163.101L158.598 163.085L158.613 163.068L157.103 161.756ZM155.487 163.289L156.673 164.899L156.7 164.88L156.726 164.859L155.487 163.289ZM153.953 164.574L152.58 163.12L152.58 163.12L153.953 164.574ZM152.793 165.901L151.128 164.791L151.102 164.831L151.078 164.872L152.793 165.901ZM152.461 167.393L150.463 167.488L150.466 167.535L150.47 167.582L152.461 167.393ZM153.249 169.3L151.595 170.424L151.701 170.58L151.834 170.714L153.249 169.3ZM168.378 171.455L168.691 173.43L168.701 173.429L168.71 173.427L168.378 171.455ZM174.471 170.129L175.012 172.054L175.022 172.051L175.032 172.048L174.471 170.129ZM180.233 167.973L181.047 169.8L181.047 169.8L180.233 167.973ZM185.372 165.528L186.295 167.302L186.309 167.295L186.323 167.287L185.372 165.528ZM189.866 162.975L190.88 164.699L191.631 164.258L191.819 163.406L189.866 162.975ZM193.273 151.973L191.485 151.079L191.452 151.144L191.424 151.211L193.273 151.973ZM193.481 151.476L191.653 150.664L191.629 150.718L191.608 150.774L193.481 151.476ZM194.185 146.999L195.418 145.424L195.418 145.424L194.185 146.999ZM186.517 146.502L186.443 144.503L186.393 144.505L186.344 144.51L186.517 146.502ZM184.072 144.968L186.018 144.51L186.006 144.457L185.99 144.404L184.072 144.968ZM183.947 143.559L185.934 143.793L185.935 143.78L183.947 143.559ZM184.652 142.274L185.962 143.785L185.962 143.785L184.652 142.274ZM186.186 141.694L186.276 143.692L186.298 143.691L186.32 143.689L186.186 141.694ZM191.74 141.321V139.321H191.673L191.606 139.325L191.74 141.321ZM195.056 141.031L195.448 142.992L195.475 142.986L195.501 142.98L195.056 141.031ZM197.46 140.243L198.323 142.047L198.339 142.04L198.354 142.032L197.46 140.243ZM199.367 138.792L200.812 140.175L200.812 140.175L199.367 138.792ZM200.859 137.01L202.497 138.157L202.51 138.138L202.523 138.119L200.859 137.01ZM202.31 134.647L200.611 133.592L200.596 133.616L200.582 133.64L202.31 134.647ZM207.325 127.311L208.92 128.517L208.924 128.513L207.325 127.311ZM214.537 119.062L215.895 120.53L215.902 120.524L215.908 120.518L214.537 119.062ZM216.734 117.114L217.973 118.684L217.973 118.684L216.734 117.114ZM218.724 115.953L219.542 117.778L219.556 117.772L219.57 117.766L218.724 115.953ZM222.952 115.787L222.092 117.593L222.128 117.61L222.164 117.626L222.952 115.787ZM224.361 116.865L225.981 115.692L225.966 115.671L225.95 115.65L224.361 116.865ZM225.107 119.891L227.101 120.042L227.102 120.034L227.102 120.027L225.107 119.891ZM223.159 125.818L224.961 126.687L224.964 126.681L223.159 125.818ZM218.475 134.108L216.778 133.05L216.773 133.057L218.475 134.108ZM217.149 136.305L218.855 137.348L218.868 137.328L218.88 137.307L217.149 136.305ZM216.403 137.839L214.526 137.148L214.515 137.177L214.505 137.206L216.403 137.839ZM216.278 138.917L214.406 139.619L214.462 139.769L214.542 139.909L216.278 138.917ZM216.941 139.455L216.047 141.244L216.109 141.275L216.172 141.302L216.941 139.455ZM218.351 139.621L218.26 137.623L218.26 137.623L218.351 139.621ZM220.713 139.414L220.583 137.418L220.534 137.421L220.486 137.427L220.713 139.414ZM227.677 138.958V136.958H227.612L227.546 136.962L227.677 138.958ZM227.801 138.958V140.958H227.837L227.873 140.957L227.801 138.958ZM229.667 139.746L228.143 141.041L228.161 141.063L228.18 141.084L229.667 139.746ZM230.247 141.694L228.269 141.401L228.264 141.433L228.26 141.465L230.247 141.694ZM229.128 143.393L230.186 145.09L230.188 145.089L229.128 143.393ZM225.273 145.797L224.215 144.1L224.196 144.112L224.178 144.123L225.273 145.797ZM222.993 146.005L222.151 147.819L222.189 147.836L222.228 147.853L222.993 146.005ZM221.584 144.181L223.547 143.801L223.213 142.075L221.459 142.185L221.584 144.181ZM216.278 144.512L216.154 142.516L216.142 142.517L216.131 142.518L216.278 144.512ZM214.537 144.637L214.67 146.632L214.67 146.632L214.537 144.637ZM213.169 144.844L213.498 146.817L213.551 146.808L213.603 146.796L213.169 144.844ZM212.133 145.01V147.01H212.275L212.416 146.99L212.133 145.01ZM211.304 145.341L210.312 143.605L210.284 143.621L210.256 143.638L211.304 145.341ZM209.978 146.461L208.466 145.151L208.459 145.159L209.978 146.461ZM209.356 147.29L211.071 148.319L211.111 148.253L211.145 148.184L209.356 147.29ZM208.569 148.45L210.21 149.592L210.21 149.592L208.569 148.45ZM207.574 149.859L209.179 151.052L209.185 151.044L209.191 151.036L207.574 149.859ZM201.356 157.901L199.801 156.643L199.794 156.651L201.356 157.901ZM196.507 163.662L197.952 165.045L197.97 165.026L197.988 165.006L196.507 163.662ZM194.973 165.486L193.345 164.324L193.327 164.35L193.309 164.377L194.973 165.486ZM194.061 167.351L192.164 166.719L192.164 166.719L194.061 167.351ZM193.564 169.134L191.607 168.722L191.606 168.722L193.564 169.134ZM193.439 171.248L191.44 171.31L191.441 171.341L191.443 171.372L193.439 171.248ZM193.605 173.569L191.612 173.735L191.616 173.781L191.622 173.828L193.605 173.569ZM193.978 176.429L191.995 176.688L192.01 176.802L192.038 176.914L193.978 176.429ZM198.372 182.978L197.253 184.636L197.258 184.639L198.372 182.978ZM217.356 184.885L217 182.917L216.996 182.917L217.356 184.885ZM224.32 183.02L223.62 181.146L223.612 181.149L224.32 183.02ZM230.247 180.118L229.225 178.399L229.211 178.407L229.196 178.416L230.247 180.118ZM235.262 176.553L233.954 175.041L233.954 175.041L235.262 176.553ZM239.407 172.408L237.902 171.091L237.901 171.093L239.407 172.408ZM242.848 168.015L241.209 166.868L241.202 166.879L241.194 166.89L242.848 168.015ZM245.017 164.652L246.735 165.677L246.891 165.416L246.962 165.12L245.017 164.652ZM247.314 156.16L245.401 155.576L245.399 155.584L247.314 156.16ZM254.734 134.647L252.914 133.817L252.885 133.88L252.861 133.944L254.734 134.647ZM267.79 122.461L269.271 123.805L269.277 123.799L269.282 123.793L267.79 122.461ZM259.127 136.637L257.305 135.812L257.304 135.814L259.127 136.637ZM254.278 150.813L256.277 150.839L256.277 150.836L254.278 150.813ZM257.718 150.896L256.409 149.383L256.406 149.386L257.718 150.896ZM270.899 134.15L272.567 135.253L272.583 135.229L272.598 135.205L270.899 134.15ZM277.365 120.554L275.421 120.087L275.418 120.097L275.416 120.107L277.365 120.554ZM277.49 117.694L279.297 116.838L279.149 116.525L278.904 116.28L277.49 117.694ZM277.407 117.57H275.407V118.042L275.618 118.464L277.407 117.57ZM277.282 117.445L276.388 119.234L276.81 119.445H277.282V117.445ZM218.807 123.746L217.018 122.851L217.009 122.869L217 122.887L218.807 123.746ZM219.677 121.3L221.587 121.894L222.746 118.169L219.045 119.403L219.677 121.3ZM212.548 134.481L214.212 135.591L214.218 135.582L214.223 135.574L212.548 134.481ZM211.926 135.352L213.539 136.535L213.539 136.535L211.926 135.352ZM211.304 136.181L209.743 134.932L209.723 134.956L209.704 134.981L211.304 136.181ZM210.807 136.886L212.407 138.086L212.43 138.055L212.451 138.024L210.807 136.886ZM209.771 138.129L211.265 139.458L211.3 139.419L211.332 139.378L209.771 138.129ZM209.19 138.626L208.296 136.838L208.227 136.872L208.161 136.911L209.19 138.626ZM208.651 139L209.851 140.6L209.851 140.6L208.651 139ZM207.366 139.538L207.8 141.491L207.901 141.468L207.999 141.436L207.366 139.538ZM210.931 130.544L212.511 131.77L212.555 131.713L212.595 131.653L210.931 130.544ZM211.18 130.212L212.594 131.626L212.698 131.523L212.785 131.406L211.18 130.212ZM217.812 122.585L216.483 121.09L216.471 121.101L216.46 121.112L217.812 122.585ZM218.475 122.046L219.638 123.674L219.71 123.623L219.777 123.565L218.475 122.046ZM219.263 121.508L220.157 123.296L220.207 123.272L220.255 123.244L219.263 121.508ZM202.724 147.704L204.492 148.64L204.497 148.629L204.503 148.619L202.724 147.704ZM202.724 146.295V148.295H202.78L202.835 148.292L202.724 146.295ZM200.444 151.227L201.911 152.587L201.993 152.499L202.063 152.402L200.444 151.227ZM198.496 152.098L196.521 151.786L196.514 151.825L196.51 151.864L198.496 152.098ZM199.45 149.403L201.284 150.201L201.284 150.201L199.45 149.403ZM202.434 146.336L202.67 148.322L202.796 148.307L202.919 148.276L202.434 146.336ZM82.9544 199.558L82.9921 197.558L82.9733 197.558H82.9544V199.558ZM83.742 207.143L81.776 206.776L81.7748 206.783L83.742 207.143ZM78.6851 202.211L79.9415 203.767L79.9893 203.728L80.0346 203.687L78.6851 202.211ZM58.5403 221.278L57.0482 219.946L57.0452 219.95L58.5403 221.278ZM43.2867 241.423L41.5922 240.36L41.5888 240.366L43.2867 241.423ZM33.4216 261.36L35.3047 262.034L35.3047 262.034L33.4216 261.36ZM29.8154 278.147L27.8159 278.101L27.8158 278.111L29.8154 278.147ZM32.3439 288.551L30.7328 289.737L30.7372 289.742L30.7416 289.748L32.3439 288.551ZM58.9548 278.479L60.5985 279.619L60.5988 279.618L58.9548 278.479ZM75.4934 241.588L73.5843 240.993L73.584 240.993L75.4934 241.588ZM154.575 155.455L156.574 155.524L156.665 152.871L154.09 153.515L154.575 155.455ZM154.036 157.776L155.838 158.644L155.851 158.617L155.864 158.589L154.036 157.776ZM152.295 157.362L150.584 156.326L150.53 156.416L150.486 156.51L152.295 157.362ZM151.839 158.688L149.878 158.296L149.876 158.308L151.839 158.688ZM152.212 159.973L152.323 157.976L152.268 157.973H152.212V159.973ZM230.068 256.074C284.989 251.269 325.616 202.852 320.811 147.931L316.826 148.28C321.438 201 282.44 247.477 229.72 252.089L230.068 256.074ZM136.062 208.513C155.179 239.893 190.974 259.494 230.068 256.074L229.72 252.089C192.198 255.372 157.835 236.564 139.478 206.432L136.062 208.513ZM135.006 208.046C135.393 207.957 135.827 208.127 136.062 208.513L139.478 206.432C138.374 204.619 136.223 203.659 134.104 204.149L135.006 208.046ZM134.43 209.301C134.155 208.848 134.379 208.191 135.006 208.046L134.104 204.15C130.935 204.883 129.264 208.498 131.01 211.376L134.43 209.301ZM230.226 257.87C190.37 261.357 153.875 241.343 134.43 209.301L131.01 211.376C151.216 244.67 189.144 265.479 230.574 261.855L230.226 257.87ZM322.607 147.774C327.499 203.687 286.138 252.978 230.226 257.87L230.574 261.855C288.687 256.77 331.676 205.539 326.592 147.426L322.607 147.774ZM212.511 55.393C268.424 50.5012 317.715 91.8617 322.607 147.774L326.592 147.426C321.507 89.3124 270.276 46.3239 212.163 51.4082L212.511 55.393ZM122.887 131.436C133.282 90.801 168.363 59.2554 212.511 55.393L212.163 51.4082C166.27 55.4232 129.815 88.2158 119.012 130.444L122.887 131.436ZM123.803 132.468C123.162 132.512 122.756 131.949 122.887 131.436L119.012 130.444C118.177 133.707 120.83 136.682 124.077 136.459L123.803 132.468ZM124.679 131.714C124.566 132.152 124.199 132.441 123.803 132.468L124.077 136.459C126.247 136.31 128.023 134.765 128.552 132.712L124.679 131.714ZM212.668 57.1891C169.358 60.9782 134.942 91.8873 124.679 131.714L128.552 132.712C138.406 94.476 171.449 64.8106 213.017 61.1739L212.668 57.1891ZM320.811 147.931C316.006 93.0109 267.589 52.3842 212.668 57.1891L213.017 61.1739C265.737 56.5615 312.214 95.5602 316.826 148.28L320.811 147.931ZM276.578 110.596C271.558 110.596 266.942 113.22 262.739 117.89L265.712 120.566C269.468 116.393 273.086 114.596 276.578 114.596V110.596ZM280.699 111.677C279.416 110.964 278.033 110.596 276.578 110.596V114.596C277.333 114.596 278.05 114.78 278.757 115.173L280.699 111.677ZM283.663 114.794C283.047 113.44 282.015 112.408 280.699 111.677L278.757 115.173C279.43 115.547 279.808 115.979 280.021 116.449L283.663 114.794ZM283.997 122.086C284.629 119.377 284.639 116.859 283.65 114.767L280.034 116.476C280.482 117.424 280.63 118.913 280.102 121.177L283.997 122.086ZM276.656 137.74C280.536 131.543 283.041 126.3 284 122.075L280.099 121.189C279.289 124.756 277.068 129.544 273.266 135.617L276.656 137.74ZM260.196 158.79C266.506 152.227 271.995 145.209 276.658 137.737L273.264 135.619C268.753 142.848 263.437 149.647 257.313 156.017L260.196 158.79ZM256.789 161.727C258.457 160.36 259.616 159.37 260.168 158.818L257.34 155.989C256.953 156.376 255.957 157.237 254.253 158.634L256.789 161.727ZM254.164 163.497C254.164 163.89 254.034 164.153 254.009 164.203C253.971 164.282 253.946 164.308 253.974 164.272C254.028 164.2 254.158 164.047 254.408 163.8C254.9 163.315 255.681 162.63 256.784 161.731L254.258 158.63C253.123 159.555 252.225 160.334 251.598 160.954C251.288 161.26 250.999 161.571 250.774 161.872C250.661 162.022 250.532 162.212 250.423 162.432C250.328 162.624 250.164 163.006 250.164 163.497H254.164ZM254.835 161.217C253.764 161.556 253.099 161.709 252.756 161.748C252.547 161.772 252.669 161.726 252.927 161.802C253.078 161.846 253.401 161.967 253.695 162.291C254.027 162.656 254.164 163.103 254.164 163.497H250.164C250.164 164.001 250.335 164.541 250.734 164.98C251.097 165.38 251.522 165.559 251.809 165.642C252.341 165.797 252.872 165.76 253.209 165.722C253.957 165.637 254.929 165.382 256.042 165.03L254.835 161.217ZM261.689 163.271C259.736 161.895 257.642 161.123 255.438 161.123V165.123C256.661 165.123 257.966 165.541 259.384 166.541L261.689 163.271ZM263.04 164.299C262.594 163.916 262.129 163.564 261.646 163.242L259.427 166.57C259.773 166.801 260.11 167.056 260.437 167.336L263.04 164.299ZM264.486 165.575C263.926 165.071 263.443 164.645 263.04 164.299L260.437 167.336C260.808 167.654 261.264 168.057 261.81 168.548L264.486 165.575ZM265.506 166.437C265.349 166.306 264.998 166.009 264.443 165.537L261.853 168.585C262.403 169.053 262.771 169.364 262.945 169.51L265.506 166.437ZM269.083 168.954C268.046 168.447 266.868 167.638 265.549 166.473L262.902 169.473C264.402 170.796 265.876 171.838 267.326 172.547L269.083 168.954ZM272.889 169.662C271.246 169.662 269.999 169.391 269.068 168.946L267.342 172.555C268.953 173.325 270.828 173.662 272.889 173.662V169.662ZM281.104 167.454C278.318 168.948 275.587 169.662 272.889 169.662V173.662C276.325 173.662 279.701 172.746 282.995 170.979L281.104 167.454ZM288.834 161.676C286.542 163.994 283.967 165.918 281.104 167.454L282.995 170.979C286.21 169.254 289.107 167.089 291.678 164.488L288.834 161.676ZM291.498 160.347C290.437 160.459 289.546 160.964 288.842 161.668L291.67 164.496C291.766 164.4 291.833 164.359 291.865 164.342C291.894 164.328 291.907 164.326 291.916 164.325L291.498 160.347ZM294.226 161.003C293.399 160.452 292.457 160.246 291.498 160.347L291.916 164.325C291.948 164.322 291.968 164.322 291.98 164.322C291.985 164.323 291.989 164.323 291.992 164.324C291.994 164.324 291.995 164.324 291.995 164.324C291.995 164.324 291.995 164.324 291.994 164.324C291.994 164.324 291.993 164.324 291.993 164.324C291.994 164.324 291.995 164.324 291.997 164.325C291.999 164.326 292.002 164.328 292.007 164.332L294.226 161.003ZM295.826 162.633C295.409 161.937 294.841 161.37 294.145 160.953L292.087 164.383C292.22 164.462 292.316 164.558 292.396 164.691L295.826 162.633ZM296.379 165.368C296.525 164.399 296.369 163.382 295.739 162.5L292.484 164.825C292.473 164.81 292.461 164.79 292.451 164.767C292.441 164.743 292.435 164.723 292.432 164.708C292.426 164.678 292.436 164.694 292.423 164.775L296.379 165.368ZM295.023 167.94C295.761 167.249 296.277 166.354 296.39 165.281L292.412 164.862C292.412 164.869 292.411 164.871 292.406 164.882C292.398 164.896 292.369 164.945 292.287 165.022L295.023 167.94ZM290.748 171.741C292.249 170.558 293.689 169.276 295.069 167.895L292.241 165.067C290.969 166.339 289.646 167.516 288.272 168.599L290.748 171.741ZM285.682 175.063C287.525 174.027 289.209 172.925 290.73 171.755L288.291 168.585C286.938 169.625 285.416 170.624 283.721 171.577L285.682 175.063ZM279.528 177.565C281.709 176.947 283.755 176.118 285.662 175.075L283.742 171.565C282.112 172.457 280.345 173.176 278.436 173.717L279.528 177.565ZM272.889 178.47C275.116 178.47 277.325 178.169 279.51 177.57L278.453 173.712C276.604 174.219 274.751 174.47 272.889 174.47V178.47ZM265.529 176.954C267.72 177.984 270.189 178.47 272.889 178.47V174.47C270.67 174.47 268.801 174.072 267.233 173.334L265.529 176.954ZM259.766 173.132C261.549 174.678 263.463 175.951 265.508 176.943L267.254 173.345C265.54 172.513 263.918 171.437 262.385 170.109L259.766 173.132ZM256.73 170.559C256.701 170.541 256.905 170.687 257.512 171.196C258.049 171.646 258.798 172.289 259.761 173.129L262.389 170.113C261.419 169.267 260.647 168.604 260.08 168.129C259.581 167.712 259.094 167.312 258.788 167.129L256.73 170.559ZM255.438 169.973C255.61 169.973 255.987 170.044 256.612 170.482L258.906 167.205C257.874 166.482 256.704 165.973 255.438 165.973V169.973ZM252.37 171.828C253.575 170.391 254.597 169.973 255.438 169.973V165.973C253.019 165.973 250.973 167.269 249.305 169.258L252.37 171.828ZM249.249 177.516C250.316 174.902 251.371 173.036 252.379 171.818L249.296 169.269C247.927 170.924 246.689 173.203 245.545 176.005L249.249 177.516ZM246.048 180.255C247.614 179.942 248.709 178.911 249.262 177.483L245.532 176.039C245.46 176.223 245.399 176.279 245.391 176.286C245.385 176.291 245.378 176.296 245.365 176.302C245.351 176.309 245.32 176.322 245.264 176.333L246.048 180.255ZM242.155 179.152C243.228 180.128 244.568 180.503 245.985 180.267L245.327 176.321C245.086 176.362 244.989 176.322 244.846 176.193L242.155 179.152ZM240.759 175.645C240.653 177.01 241.148 178.233 242.152 179.149L244.849 176.195C244.806 176.156 244.783 176.127 244.771 176.11C244.759 176.094 244.755 176.085 244.754 176.082C244.752 176.078 244.75 176.071 244.748 176.055C244.745 176.039 244.743 176.007 244.747 175.955L240.759 175.645ZM239.486 181.737C241.156 180.346 242.741 178.811 244.242 177.134L241.263 174.466C239.886 176.003 238.44 177.402 236.925 178.664L239.486 181.737ZM233.594 185.939C235.807 184.616 237.783 183.21 239.513 181.714L236.897 178.688C235.367 180.011 233.585 181.284 231.542 182.505L233.594 185.939ZM226.607 189.365C229.043 188.437 231.378 187.291 233.61 185.929L231.526 182.514C229.503 183.749 227.389 184.787 225.183 185.627L226.607 189.365ZM218.548 191.577C221.495 191.033 224.187 190.298 226.614 189.362L225.175 185.63C223.015 186.463 220.567 187.137 217.822 187.643L218.548 191.577ZM209.273 192.398C212.481 192.398 215.574 192.125 218.548 191.577L217.822 187.643C215.104 188.145 212.255 188.398 209.273 188.398V192.398ZM194.61 188.663C198.44 191.216 203.386 192.398 209.273 192.398V188.398C203.886 188.398 199.796 187.313 196.828 185.335L194.61 188.663ZM187.355 178.119C188.489 182.626 190.905 186.183 194.606 188.661L196.832 185.337C194.012 183.449 192.144 180.76 191.234 177.143L187.355 178.119ZM186.808 168.913C186.499 172.295 186.663 175.375 187.355 178.12L191.234 177.142C190.677 174.934 190.513 172.323 190.792 169.278L186.808 168.913ZM188.503 171.524C188.902 171.313 189.32 171.089 189.756 170.852L187.844 167.338C187.421 167.569 187.018 167.785 186.635 167.987L188.503 171.524ZM182.919 174.232C185.154 173.226 187.024 172.321 188.517 171.516L186.621 167.995C185.241 168.738 183.463 169.601 181.277 170.584L182.919 174.232ZM176.406 176.647C178.461 176.04 180.626 175.235 182.899 174.241L181.296 170.576C179.149 171.516 177.141 172.259 175.272 172.812L176.406 176.647ZM169.404 178.154C172.003 177.731 174.331 177.232 176.381 176.655L175.297 172.804C173.423 173.332 171.247 173.801 168.761 174.206L169.404 178.154ZM161.456 178.802C164.134 178.802 166.785 178.586 169.408 178.154L168.757 174.207C166.351 174.604 163.918 174.802 161.456 174.802V178.802ZM148.45 174.168C151.685 177.339 156.114 178.802 161.456 178.802V174.802C156.849 174.802 153.541 173.557 151.25 171.311L148.45 174.168ZM144.799 168.018C145.502 170.353 146.715 172.402 148.423 174.141L151.277 171.339C150.023 170.062 149.146 168.579 148.629 166.864L144.799 168.018ZM101.758 188.718C116.029 180.241 131.19 173.792 147.245 169.369L146.183 165.513C129.785 170.03 114.294 176.619 99.715 185.279L101.758 188.718ZM98.6982 190.538C99.3837 190.126 100.402 189.521 101.755 188.72L99.7178 185.278C98.363 186.079 97.3363 186.69 96.6402 187.108L98.6982 190.538ZM96.5397 192.004C97.3595 191.396 98.0779 190.91 98.6982 190.538L96.6402 187.108C95.8788 187.564 95.0497 188.129 94.1563 188.791L96.5397 192.004ZM94.8969 193.346C95.1768 193.066 95.7027 192.625 96.5397 192.004L94.1563 188.791C93.28 189.442 92.5624 190.023 92.0685 190.517L94.8969 193.346ZM93.7919 194.782C94.2966 194.065 94.6789 193.582 94.9483 193.292L92.0172 190.57C91.5681 191.054 91.0661 191.705 90.5207 192.48L93.7919 194.782ZM92.9845 196.268C93.0958 195.918 93.3382 195.426 93.792 194.782L90.5207 192.48C89.9244 193.327 89.4483 194.189 89.1728 195.055L92.9845 196.268ZM92.2574 198.733C92.5591 197.663 92.8009 196.845 92.9845 196.268L89.1728 195.055C88.9695 195.694 88.7138 196.562 88.4076 197.647L92.2574 198.733ZM91.6046 201.769C91.7581 200.771 91.9764 199.755 92.2609 198.721L88.4041 197.66C88.0807 198.836 87.8292 200.003 87.6511 201.161L91.6046 201.769ZM90.9854 205.98C91.2338 204.268 91.4406 202.863 91.6057 201.761L87.65 201.168C87.4836 202.278 87.2758 203.69 87.0269 205.405L90.9854 205.98ZM82.0045 243.591C85.5144 232.281 88.5031 219.765 90.9744 206.047L87.0378 205.338C84.5904 218.922 81.6379 231.276 78.1842 242.405L82.0045 243.591ZM64.5375 282.352C71.0785 272.895 76.8861 259.947 82.0031 243.595L78.1856 242.401C73.1336 258.545 67.4733 271.076 61.2477 280.077L64.5375 282.352ZM40.095 298.8C49.0771 298.8 57.2011 292.962 64.5376 282.352L61.2476 280.077C54.2146 290.248 47.1404 294.8 40.095 294.8V298.8ZM32.5676 297.199C34.8542 298.279 37.3754 298.8 40.095 298.8V294.8C37.896 294.8 35.9682 294.381 34.2756 293.582L32.5676 297.199ZM26.8952 292.62C28.3933 294.596 30.2937 296.125 32.5676 297.199L34.2756 293.582C32.5702 292.777 31.1823 291.654 30.0828 290.203L26.8952 292.62ZM23.0076 278.025C22.8917 283.938 24.1026 288.875 26.8858 292.607L30.0923 290.216C28.0119 287.426 26.9017 283.465 27.0068 278.104L23.0076 278.025ZM26.8953 259.155C24.4408 266.039 23.1237 272.336 23.0076 278.024L27.0068 278.105C27.1118 272.961 28.3094 267.099 30.663 260.498L26.8953 259.155ZM37.5293 237.833C32.9365 245.17 29.3868 252.275 26.8987 259.146L30.6597 260.508C33.035 253.948 36.4489 247.098 40.9199 239.955L37.5293 237.833ZM53.9047 216.291C47.5067 223.388 42.0445 230.569 37.526 237.838L40.9232 239.95C45.3026 232.905 50.6174 225.911 56.8755 218.97L53.9047 216.291ZM75.6165 196.045C67.5791 202.435 60.3415 209.183 53.9076 216.288L56.8726 218.973C63.1501 212.04 70.2266 205.441 78.106 199.175L75.6165 196.045ZM75.6957 195.989C75.666 196.018 75.664 196.018 75.6844 196.001C75.6955 195.992 75.7217 195.97 75.7609 195.943C75.7972 195.918 75.8678 195.871 75.9668 195.821L77.7557 199.399C78.1361 199.209 78.4248 198.916 78.5242 198.817L75.6957 195.989ZM78.0768 194.076C77.6269 194.447 76.8968 195.029 75.8762 195.829L78.3437 198.977C79.368 198.174 80.1301 197.567 80.6197 197.164L78.0768 194.076ZM79.9229 192.512C79.1644 193.189 78.5668 193.694 78.1204 194.042L80.5761 197.199C81.1245 196.773 81.798 196.2 82.587 195.496L79.9229 192.512ZM81.4848 191.114C81.2498 191.368 80.7711 191.808 79.9798 192.463L82.5301 195.545C83.3415 194.873 83.9958 194.291 84.424 193.827L81.4848 191.114ZM82.8424 189.674C82.2998 190.271 81.8677 190.728 81.5402 191.056L84.3686 193.884C84.7596 193.493 85.2394 192.984 85.8021 192.365L82.8424 189.674ZM83.6732 188.551C83.5714 188.768 83.3295 189.138 82.8424 189.674L85.8021 192.365C86.4204 191.685 86.9522 190.978 87.2925 190.254L83.6732 188.551ZM84.5801 186.861C84.2547 187.485 83.9749 188.004 83.7397 188.422L87.226 190.383C87.4882 189.917 87.7888 189.359 88.1265 188.711L84.5801 186.861ZM85.1415 185.43C85.0485 185.876 84.8777 186.332 84.6122 186.802L88.0944 188.77C88.5474 187.969 88.874 187.126 89.0574 186.246L85.1415 185.43ZM85.5845 183.343C85.4537 184.101 85.3129 184.763 85.1642 185.333L89.0347 186.343C89.2175 185.642 89.3807 184.867 89.5263 184.023L85.5845 183.343ZM85.8952 180.973C85.8167 181.837 85.7131 182.622 85.5865 183.331L89.5242 184.034C89.674 183.196 89.7915 182.295 89.8788 181.335L85.8952 180.973ZM88.747 135.02C88.747 149.913 87.7991 165.21 85.9014 180.914L89.8725 181.394C91.7883 165.541 92.747 150.083 92.747 135.02H88.747ZM89.996 131.907C89.1311 132.772 88.6978 133.881 88.7488 135.104L92.7453 134.937C92.7419 134.856 92.7543 134.828 92.7553 134.825C92.7563 134.823 92.7669 134.793 92.8244 134.735L89.996 131.907ZM93.0264 130.576C91.8615 130.625 90.8202 131.083 89.996 131.907L92.8244 134.735C92.9398 134.62 93.0314 134.58 93.1929 134.573L93.0264 130.576ZM96.2632 131.948C95.4291 131.064 94.3425 130.575 93.1097 130.575V134.575C93.1847 134.575 93.216 134.587 93.228 134.593C93.2413 134.598 93.2845 134.619 93.3551 134.694L96.2632 131.948ZM97.5552 135.02C97.5552 133.788 97.0655 132.701 96.1824 131.867L93.4359 134.775C93.5106 134.845 93.5316 134.889 93.5374 134.902C93.5427 134.914 93.5552 134.945 93.5552 135.02H97.5552ZM95.0975 177.312C96.7351 162.519 97.5552 148.421 97.5552 135.02H93.5552C93.5552 148.258 92.745 162.209 91.1218 176.872L95.0975 177.312ZM94.7638 180.232C94.8478 179.532 94.9591 178.559 95.0974 177.313L91.1219 176.871C90.984 178.113 90.8742 179.073 90.7923 179.755L94.7638 180.232ZM94.7352 182.031C94.7104 181.388 94.723 180.762 94.7717 180.153L90.7845 179.834C90.7227 180.606 90.7076 181.39 90.7381 182.184L94.7352 182.031ZM94.8008 182.857C94.8328 182.937 94.8154 182.926 94.7902 182.744C94.7677 182.583 94.7474 182.349 94.7352 182.031L90.7381 182.184C90.7656 182.898 90.8346 183.712 91.0869 184.343L94.8008 182.857ZM94.6394 182.659C94.6423 182.66 94.676 182.683 94.7187 182.734C94.7629 182.787 94.7997 182.851 94.8235 182.916L91.0643 184.283C91.3426 185.049 91.8607 185.632 92.4919 186.033L94.6394 182.659ZM94.128 182.538C94.1191 182.54 94.1807 182.522 94.2923 182.535C94.412 182.549 94.5352 182.592 94.6394 182.659L92.4919 186.033C93.3577 186.584 94.3156 186.628 95.1587 186.403L94.128 182.538ZM95.4959 182.059C94.8516 182.343 94.4541 182.469 94.2512 182.509L95.0355 186.431C95.6615 186.306 96.3694 186.045 97.1068 185.721L95.4959 182.059ZM97.5935 180.973C96.8266 181.433 96.1369 181.788 95.5221 182.048L97.0806 185.732C97.9027 185.384 98.7605 184.938 99.6515 184.403L97.5935 180.973ZM100.658 179.094C99.4553 179.859 98.4436 180.479 97.6183 180.958L99.6268 184.417C100.515 183.902 101.576 183.251 102.805 182.469L100.658 179.094ZM145.555 160.702C129.773 164.991 114.836 171.103 100.75 179.039L102.713 182.524C116.508 174.752 131.137 168.765 146.604 164.562L145.555 160.702ZM144.219 160.873C144.145 161.438 144.099 162.004 144.081 162.569L148.079 162.695C148.092 162.263 148.128 161.83 148.185 161.395L144.219 160.873ZM146.366 154.012C145.247 156.221 144.526 158.511 144.219 160.876L148.185 161.391C148.431 159.501 149.009 157.646 149.934 155.821L146.366 154.012ZM149.871 150.028C148.494 151.035 147.352 152.339 146.429 153.898L149.871 155.935C150.551 154.786 151.343 153.907 152.233 153.256L149.871 150.028ZM154.907 148.357C153.059 148.357 151.36 148.929 149.864 150.033L152.239 153.251C153.065 152.642 153.935 152.357 154.907 152.357V148.357ZM159.38 150.055C158.143 148.901 156.603 148.357 154.907 148.357V152.357C155.697 152.357 156.229 152.586 156.651 152.98L159.38 150.055ZM161.396 153.917C161.139 152.409 160.485 151.079 159.374 150.05L156.656 152.985C157.038 153.338 157.324 153.832 157.453 154.59L161.396 153.917ZM160.256 160.581C161.27 158.307 161.725 156.074 161.402 153.952L157.447 154.555C157.621 155.693 157.413 157.135 156.603 158.951L160.256 160.581ZM158.613 163.068C159.271 162.311 159.817 161.499 160.233 160.631L156.627 158.901C156.38 159.415 156.041 159.93 155.594 160.443L158.613 163.068ZM156.726 164.859C157.354 164.363 157.973 163.773 158.583 163.101L155.624 160.41C155.129 160.955 154.67 161.386 154.248 161.72L156.726 164.859ZM155.326 166.028C155.768 165.612 156.217 165.236 156.673 164.899L154.3 161.679C153.707 162.116 153.134 162.597 152.58 163.12L155.326 166.028ZM154.457 167.01C154.625 166.758 154.901 166.43 155.326 166.028L152.58 163.12C152.01 163.658 151.513 164.215 151.128 164.791L154.457 167.01ZM154.459 167.298C154.446 167.031 154.5 166.942 154.508 166.93L151.078 164.872C150.588 165.688 150.421 166.594 150.463 167.488L154.459 167.298ZM154.902 168.175C154.545 167.649 154.465 167.335 154.452 167.203L150.47 167.582C150.568 168.612 151.013 169.568 151.595 170.424L154.902 168.175ZM161.456 169.994C158.073 169.994 155.944 169.167 154.663 167.885L151.834 170.714C154.145 173.025 157.488 173.994 161.456 173.994V169.994ZM168.065 169.48C165.905 169.822 163.702 169.994 161.456 169.994V173.994C163.907 173.994 166.319 173.806 168.691 173.43L168.065 169.48ZM173.93 168.203C172.245 168.677 170.286 169.105 168.045 169.483L168.71 173.427C171.057 173.031 173.16 172.575 175.012 172.054L173.93 168.203ZM179.418 166.147C177.44 167.029 175.605 167.713 173.91 168.209L175.032 172.048C176.93 171.494 178.935 170.741 181.047 169.8L179.418 166.147ZM184.45 163.753C183.115 164.447 181.441 165.245 179.418 166.147L181.047 169.8C183.114 168.878 184.866 168.045 186.295 167.302L184.45 163.753ZM188.852 161.252C187.127 162.266 185.651 163.104 184.422 163.768L186.323 167.287C187.608 166.593 189.128 165.73 190.88 164.699L188.852 161.252ZM191.424 151.211C189.971 154.737 188.802 158.516 187.913 162.544L191.819 163.406C192.662 159.585 193.765 156.029 195.123 152.736L191.424 151.211ZM191.608 150.774C191.573 150.868 191.544 150.942 191.521 150.997C191.509 151.024 191.5 151.045 191.494 151.059C191.487 151.074 191.484 151.08 191.485 151.079L195.062 152.868C195.165 152.662 195.264 152.417 195.353 152.178L191.608 150.774ZM192.953 148.574C192.647 148.335 192.557 148.049 192.538 147.954C192.524 147.886 192.548 147.938 192.51 148.181C192.433 148.668 192.182 149.474 191.653 150.664L195.308 152.288C195.885 150.991 196.303 149.807 196.462 148.803C196.595 147.957 196.671 146.405 195.418 145.424L192.953 148.574ZM186.591 148.501C188.804 148.419 190.484 148.421 191.662 148.498C192.254 148.536 192.67 148.59 192.942 148.647C193.286 148.718 193.177 148.75 192.953 148.574L195.418 145.424C194.876 145 194.209 144.825 193.755 144.73C193.229 144.621 192.607 144.551 191.921 144.506C190.543 144.417 188.707 144.42 186.443 144.503L186.591 148.501ZM183.767 147.777C184.661 148.391 185.684 148.582 186.69 148.494L186.344 144.51C186.203 144.522 186.123 144.51 186.086 144.501C186.054 144.494 186.041 144.486 186.034 144.481L183.767 147.777ZM182.125 145.426C182.362 146.436 182.965 147.225 183.767 147.777L186.034 144.481C186.006 144.462 185.992 144.449 185.986 144.444C185.981 144.439 185.983 144.44 185.989 144.448C185.995 144.457 186.002 144.468 186.008 144.482C186.014 144.495 186.017 144.506 186.018 144.51L182.125 145.426ZM181.961 143.325C181.873 144.072 181.941 144.814 182.153 145.533L185.99 144.404C185.925 144.184 185.911 143.985 185.933 143.793L181.961 143.325ZM183.342 140.763C182.587 141.417 182.076 142.291 181.959 143.338L185.935 143.78C185.935 143.78 185.934 143.786 185.931 143.797C185.927 143.808 185.923 143.819 185.918 143.826C185.914 143.834 185.913 143.835 185.918 143.829C185.923 143.823 185.936 143.808 185.962 143.785L183.342 140.763ZM186.095 139.696C185.089 139.742 184.134 140.076 183.342 140.763L185.962 143.785C185.999 143.753 186.066 143.701 186.276 143.692L186.095 139.696ZM191.606 139.325L186.051 139.698L186.32 143.689L191.874 143.316L191.606 139.325ZM194.664 139.069C193.854 139.231 192.884 139.321 191.74 139.321V143.321C193.083 143.321 194.323 143.217 195.448 142.992L194.664 139.069ZM196.597 138.439C196.136 138.659 195.487 138.881 194.61 139.081L195.501 142.98C196.559 142.739 197.512 142.435 198.323 142.047L196.597 138.439ZM197.921 137.41C197.443 137.909 196.989 138.243 196.565 138.454L198.354 142.032C199.257 141.58 200.074 140.946 200.812 140.175L197.921 137.41ZM199.22 135.863C198.906 136.312 198.479 136.827 197.921 137.41L200.812 140.175C201.47 139.486 202.038 138.813 202.497 138.157L199.22 135.863ZM200.582 133.64C200.011 134.619 199.55 135.368 199.195 135.901L202.523 138.119C202.942 137.491 203.448 136.665 204.037 135.655L200.582 133.64ZM205.73 126.104C203.977 128.423 202.27 130.919 200.611 133.592L204.009 135.702C205.609 133.125 207.247 130.73 208.92 128.517L205.73 126.104ZM213.179 117.594C210.852 119.747 208.368 122.596 205.727 126.109L208.924 128.513C211.477 125.117 213.801 122.467 215.895 120.53L213.179 117.594ZM215.495 115.544C214.9 116.014 214.117 116.711 213.167 117.606L215.908 120.518C216.836 119.645 217.518 119.043 217.973 118.684L215.495 115.544ZM217.906 114.128C216.998 114.535 216.182 115.001 215.495 115.544L217.973 118.684C218.336 118.397 218.847 118.09 219.542 117.778L217.906 114.128ZM221.211 113.373C220.06 113.373 218.944 113.643 217.878 114.141L219.57 117.766C220.161 117.489 220.703 117.373 221.211 117.373V113.373ZM223.812 113.982C222.992 113.591 222.119 113.373 221.211 113.373V117.373C221.463 117.373 221.751 117.431 222.092 117.593L223.812 113.982ZM225.95 115.65C225.367 114.889 224.614 114.324 223.74 113.949L222.164 117.626C222.45 117.748 222.636 117.902 222.772 118.08L225.95 115.65ZM227.102 120.027C227.21 118.456 226.895 116.954 225.981 115.692L222.741 118.038C222.988 118.379 223.17 118.894 223.112 119.755L227.102 120.027ZM224.964 126.681C226.182 124.131 226.962 121.884 227.101 120.042L223.113 119.741C223.031 120.827 222.513 122.532 221.354 124.956L224.964 126.681ZM220.172 135.167C222.211 131.899 223.813 129.069 224.961 126.687L221.357 124.95C220.295 127.155 218.774 129.851 216.778 133.05L220.172 135.167ZM218.88 137.307C219.169 136.807 219.6 136.094 220.177 135.159L216.773 133.057C216.19 134.002 215.736 134.754 215.418 135.303L218.88 137.307ZM218.279 138.53C218.426 138.133 218.617 137.739 218.855 137.348L215.442 135.262C215.073 135.866 214.766 136.495 214.526 137.148L218.279 138.53ZM218.151 138.214C218.211 138.375 218.229 138.506 218.234 138.582C218.24 138.659 218.235 138.705 218.234 138.711C218.233 138.717 218.235 138.701 218.245 138.656C218.256 138.613 218.273 138.552 218.3 138.471L214.505 137.206C214.396 137.533 214.302 137.889 214.26 138.252C214.221 138.595 214.209 139.095 214.406 139.619L218.151 138.214ZM217.836 137.667C217.764 137.631 217.757 137.619 217.788 137.644C217.818 137.669 217.919 137.756 218.015 137.924L214.542 139.909C214.939 140.605 215.573 141.007 216.047 141.244L217.836 137.667ZM218.26 137.623C218.035 137.634 217.878 137.626 217.776 137.614C217.671 137.602 217.661 137.589 217.711 137.609L216.172 141.302C216.902 141.606 217.717 141.652 218.442 141.619L218.26 137.623ZM220.486 137.427C219.541 137.535 218.804 137.599 218.26 137.623L218.442 141.619C219.114 141.589 219.951 141.514 220.941 141.401L220.486 137.427ZM227.546 136.962L220.583 137.418L220.844 141.41L227.808 140.954L227.546 136.962ZM227.801 136.958H227.677V140.958H227.801V136.958ZM231.19 138.45C230.295 137.397 229.068 136.912 227.73 136.959L227.873 140.957C228.011 140.952 228.064 140.974 228.07 140.977C228.075 140.979 228.081 140.982 228.089 140.988C228.098 140.994 228.116 141.01 228.143 141.041L231.19 138.45ZM232.225 141.987C232.422 140.661 232.056 139.411 231.153 138.408L228.18 141.084C228.25 141.161 228.264 141.205 228.268 141.218C228.272 141.233 228.286 141.284 228.269 141.401L232.225 141.987ZM230.188 145.089C231.319 144.382 232.075 143.3 232.234 141.923L228.26 141.465C228.256 141.503 228.249 141.525 228.245 141.535C228.242 141.545 228.239 141.551 228.235 141.558C228.229 141.566 228.193 141.619 228.068 141.697L230.188 145.089ZM226.331 147.494L230.186 145.09L228.069 141.696L224.215 144.1L226.331 147.494ZM222.228 147.853C223.633 148.434 225.089 148.307 226.367 147.471L224.178 144.123C224.058 144.202 223.998 144.208 223.983 144.21C223.967 144.211 223.901 144.216 223.758 144.157L222.228 147.853ZM219.62 144.561C219.905 146.031 220.779 147.182 222.151 147.819L223.835 144.191C223.707 144.131 223.661 144.08 223.643 144.056C223.624 144.031 223.579 143.964 223.547 143.801L219.62 144.561ZM216.403 146.508L221.709 146.177L221.459 142.185L216.154 142.516L216.403 146.508ZM214.67 146.632C215.092 146.604 215.678 146.562 216.426 146.507L216.131 142.518C215.386 142.573 214.811 142.614 214.404 142.641L214.67 146.632ZM213.603 146.796C214.023 146.703 214.377 146.652 214.67 146.632L214.404 142.641C213.869 142.677 213.311 142.764 212.736 142.892L213.603 146.796ZM212.416 146.99C212.635 146.958 213.002 146.899 213.498 146.817L212.841 142.871C212.342 142.954 212.018 143.006 211.85 143.03L212.416 146.99ZM212.296 147.078C212.367 147.037 212.424 147.007 212.468 146.985C212.513 146.963 212.537 146.952 212.544 146.95C212.553 146.946 212.527 146.957 212.473 146.971C212.445 146.978 212.403 146.987 212.349 146.995C212.295 147.003 212.222 147.01 212.133 147.01V143.01C211.668 143.01 211.276 143.149 211.059 143.236C210.804 143.338 210.55 143.469 210.312 143.605L212.296 147.078ZM211.75 147.42C211.75 147.42 211.752 147.419 211.754 147.417C211.757 147.416 211.76 147.413 211.765 147.41C211.775 147.404 211.787 147.396 211.803 147.386C211.835 147.366 211.877 147.34 211.929 147.307C212.034 147.241 212.175 147.154 212.352 147.045L210.256 143.638C209.91 143.851 209.652 144.012 209.532 144.092L211.75 147.42ZM211.489 147.77C211.661 147.572 211.786 147.433 211.869 147.344C211.889 147.323 211.905 147.307 211.917 147.295C211.929 147.283 211.934 147.278 211.934 147.278C211.934 147.278 211.931 147.281 211.926 147.285C211.921 147.289 211.913 147.297 211.901 147.307C211.885 147.321 211.831 147.366 211.75 147.42L209.532 144.092C209.265 144.27 209.031 144.523 208.957 144.603C208.819 144.749 208.653 144.935 208.466 145.151L211.489 147.77ZM211.145 148.184C211.12 148.235 211.104 148.257 211.114 148.242C211.121 148.23 211.14 148.203 211.174 148.158C211.242 148.067 211.347 147.936 211.496 147.762L208.459 145.159C208.145 145.526 207.776 145.977 207.567 146.395L211.145 148.184ZM210.21 149.592C210.633 148.984 210.945 148.529 211.071 148.319L207.641 146.261C207.642 146.259 207.629 146.281 207.589 146.341C207.553 146.395 207.505 146.468 207.442 146.56C207.317 146.745 207.146 146.993 206.927 147.308L210.21 149.592ZM209.191 151.036C209.425 150.714 209.767 150.23 210.21 149.592L206.927 147.308C206.486 147.941 206.164 148.397 205.956 148.683L209.191 151.036ZM202.911 159.159C204.92 156.675 207.01 153.973 209.179 151.052L205.968 148.667C203.827 151.549 201.771 154.208 199.801 156.643L202.911 159.159ZM197.988 165.006C199.379 163.472 201.024 161.517 202.918 159.15L199.794 156.651C197.93 158.982 196.342 160.868 195.025 162.318L197.988 165.006ZM196.6 166.649C196.948 166.161 197.395 165.627 197.952 165.045L195.061 162.28C194.402 162.969 193.826 163.65 193.345 164.324L196.6 166.649ZM195.958 167.984C196.123 167.489 196.349 167.028 196.637 166.596L193.309 164.377C192.823 165.105 192.441 165.887 192.164 166.719L195.958 167.984ZM195.521 169.546C195.612 169.114 195.755 168.595 195.958 167.984L192.164 166.719C191.925 167.434 191.737 168.104 191.607 168.722L195.521 169.546ZM195.438 171.185C195.413 170.372 195.457 169.847 195.521 169.546L191.606 168.722C191.449 169.47 191.41 170.355 191.44 171.31L195.438 171.185ZM195.598 173.403C195.544 172.757 195.49 171.998 195.435 171.123L191.443 171.372C191.499 172.266 191.555 173.054 191.612 173.735L195.598 173.403ZM195.961 176.17L195.588 173.31L191.622 173.828L191.995 176.688L195.961 176.17ZM199.491 181.32C197.736 180.136 196.531 178.396 195.918 175.944L192.038 176.914C192.862 180.21 194.587 182.836 197.253 184.636L199.491 181.32ZM209.273 183.589C204.816 183.589 201.628 182.753 199.485 181.317L197.258 184.639C200.311 186.685 204.391 187.589 209.273 187.589V183.589ZM216.996 182.917C214.554 183.364 211.981 183.589 209.273 183.589V187.589C212.203 187.589 215.018 187.345 217.716 186.852L216.996 182.917ZM223.612 181.149C221.702 181.872 219.501 182.464 217 182.917L217.712 186.853C220.406 186.366 222.848 185.715 225.027 184.89L223.612 181.149ZM229.196 178.416C227.428 179.508 225.57 180.418 223.62 181.146L225.019 184.893C227.214 184.074 229.307 183.049 231.298 181.82L229.196 178.416ZM233.954 175.041C232.619 176.196 231.047 177.316 229.225 178.399L231.269 181.837C233.261 180.654 235.031 179.398 236.571 178.066L233.954 175.041ZM237.901 171.093C236.632 172.547 235.316 173.862 233.954 175.041L236.571 178.066C238.083 176.757 239.53 175.309 240.914 173.723L237.901 171.093ZM241.194 166.89C240.309 168.191 239.215 169.592 237.902 171.091L240.913 173.725C242.308 172.13 243.508 170.601 244.502 169.139L241.194 166.89ZM243.3 163.628C242.616 164.774 241.919 165.854 241.209 166.868L244.486 169.162C245.255 168.063 246.005 166.901 246.735 165.677L243.3 163.628ZM245.399 155.584C244.548 158.412 243.773 161.279 243.073 164.184L246.962 165.12C247.644 162.287 248.4 159.492 249.229 156.736L245.399 155.584ZM252.861 133.944C249.811 142.068 247.323 149.28 245.401 155.576L249.227 156.744C251.118 150.549 253.577 143.419 256.606 135.35L252.861 133.944ZM262.741 117.888C259.24 121.768 255.975 127.105 252.914 133.817L256.553 135.477C259.516 128.98 262.579 124.038 265.711 120.568L262.741 117.888ZM276.578 119.404H277.034V115.404H276.578V119.404ZM269.282 123.793C272.134 120.601 274.563 119.404 276.578 119.404V115.404C272.9 115.404 269.471 117.578 266.299 121.128L269.282 123.793ZM260.949 137.462C263.694 131.401 266.48 126.881 269.271 123.805L266.309 121.117C263.132 124.618 260.142 129.548 257.305 135.812L260.949 137.462ZM256.277 150.836C256.287 150.002 256.604 148.49 257.403 146.155C258.183 143.875 259.361 140.981 260.95 137.46L257.304 135.814C255.688 139.394 254.455 142.414 253.618 144.86C252.801 147.25 252.296 149.275 252.278 150.789L256.277 150.836ZM256.406 149.386C255.877 149.845 255.48 150.131 255.202 150.29C255.066 150.369 254.989 150.398 254.966 150.406C254.939 150.415 255.014 150.385 255.165 150.388C255.333 150.393 255.571 150.44 255.81 150.591C256.046 150.74 256.178 150.923 256.242 151.043C256.3 151.152 256.302 151.208 256.294 151.158C256.286 151.113 256.275 151.012 256.277 150.839L252.278 150.786C252.269 151.425 252.336 152.219 252.712 152.924C253.176 153.794 254.028 154.362 255.069 154.387C255.902 154.407 256.648 154.073 257.193 153.76C257.782 153.422 258.398 152.955 259.03 152.405L256.406 149.386ZM269.231 133.047C263.737 141.357 259.471 146.733 256.409 149.383L259.027 152.408C262.541 149.366 267.063 143.578 272.567 135.253L269.231 133.047ZM275.416 120.107C274.719 123.145 272.709 127.448 269.2 133.094L272.598 135.205C276.164 129.467 278.465 124.706 279.315 121.002L275.416 120.107ZM275.682 118.55C275.605 118.388 275.662 118.379 275.647 118.716C275.634 119.019 275.569 119.467 275.421 120.087L279.31 121.021C279.493 120.26 279.615 119.54 279.643 118.89C279.67 118.273 279.623 117.526 279.297 116.838L275.682 118.55ZM275.618 118.464C275.693 118.614 275.834 118.867 276.075 119.108L278.904 116.28C279.004 116.381 279.072 116.472 279.112 116.533C279.154 116.595 279.181 116.646 279.196 116.675L275.618 118.464ZM275.407 117.487V117.57H279.407V117.487H275.407ZM277.282 119.445C277.265 119.445 277.035 119.451 276.743 119.353C276.591 119.303 276.28 119.178 275.985 118.883C275.64 118.538 275.407 118.045 275.407 117.487H279.407C279.407 116.145 278.291 115.653 278.008 115.559C277.675 115.447 277.382 115.445 277.282 115.445V119.445ZM277.034 119.404C277.011 119.404 276.945 119.403 276.85 119.387C276.761 119.372 276.59 119.335 276.388 119.234L278.177 115.657C277.704 115.42 277.246 115.404 277.034 115.404V119.404ZM220.596 124.64C220.874 124.084 221.208 123.111 221.587 121.894L217.767 120.706C217.372 121.976 217.126 122.634 217.018 122.851L220.596 124.64ZM214.223 135.574C217.09 131.176 219.231 127.512 220.613 124.604L217 122.887C215.729 125.562 213.698 129.055 210.872 133.389L214.223 135.574ZM213.539 136.535C213.841 136.122 214.073 135.799 214.212 135.591L210.884 133.372C210.801 133.496 210.619 133.753 210.313 134.169L213.539 136.535ZM212.866 137.43C213.007 137.254 213.238 136.944 213.539 136.535L210.313 134.169C210.006 134.589 209.823 134.831 209.743 134.932L212.866 137.43ZM212.451 138.024C212.704 137.658 212.848 137.456 212.904 137.381L209.704 134.981C209.594 135.127 209.407 135.394 209.162 135.747L212.451 138.024ZM211.682 138.963C211.907 138.739 212.165 138.409 212.407 138.086L209.207 135.686C209.092 135.839 209.001 135.955 208.933 136.039C208.858 136.132 208.836 136.152 208.854 136.135L211.682 138.963ZM211.332 139.378C211.434 139.252 211.515 139.153 211.579 139.078C211.611 139.041 211.636 139.013 211.655 138.993C211.674 138.971 211.683 138.963 211.682 138.963L208.854 136.135C208.658 136.33 208.433 136.599 208.209 136.88L211.332 139.378ZM210.085 140.415C210.592 140.162 210.988 139.77 211.265 139.458L208.276 136.8C208.243 136.837 208.216 136.865 208.196 136.886C208.175 136.907 208.162 136.918 208.158 136.921C208.154 136.925 208.161 136.918 208.181 136.904C208.201 136.891 208.239 136.866 208.296 136.838L210.085 140.415ZM209.851 140.6C210.05 140.45 210.167 140.373 210.219 140.341L208.161 136.911C207.937 137.046 207.695 137.217 207.451 137.4L209.851 140.6ZM208.579 141.254C209.077 141.112 209.503 140.861 209.851 140.6L207.451 137.4C207.431 137.415 207.415 137.426 207.404 137.433C207.393 137.44 207.388 137.443 207.389 137.442C207.39 137.442 207.398 137.437 207.413 137.431C207.427 137.425 207.45 137.417 207.48 137.408L208.579 141.254ZM207.999 141.436C208.228 141.359 208.42 141.3 208.579 141.254L207.48 137.408C207.252 137.473 207.003 137.552 206.734 137.641L207.999 141.436ZM206.579 141.621C206.989 141.621 207.398 141.58 207.8 141.491L206.933 137.586C206.838 137.607 206.722 137.621 206.579 137.621V141.621ZM209.351 129.317C206.997 132.35 205.342 134.765 204.516 136.487C204.144 137.263 203.74 138.288 203.854 139.281C203.922 139.878 204.192 140.568 204.839 141.065C205.437 141.525 206.104 141.621 206.579 141.621V137.621C206.605 137.621 206.924 137.623 207.276 137.894C207.677 138.201 207.803 138.608 207.828 138.827C207.855 139.064 207.77 138.953 208.123 138.217C208.748 136.913 210.167 134.789 212.511 131.77L209.351 129.317ZM209.766 128.798C209.553 129.01 209.372 129.276 209.267 129.434L212.595 131.653C212.616 131.622 212.633 131.597 212.647 131.577C212.662 131.556 212.671 131.543 212.676 131.536C212.679 131.533 212.68 131.532 212.679 131.533C212.678 131.534 212.675 131.538 212.67 131.544C212.665 131.55 212.656 131.56 212.644 131.573C212.633 131.586 212.616 131.604 212.594 131.626L209.766 128.798ZM216.46 121.112C214.317 123.078 212.023 125.727 209.575 129.019L212.785 131.406C215.145 128.231 217.272 125.795 219.164 124.059L216.46 121.112ZM217.313 120.419C217.044 120.611 216.766 120.839 216.483 121.09L219.141 124.08C219.355 123.889 219.52 123.758 219.638 123.674L217.313 120.419ZM217.78 120.051C217.584 120.181 217.363 120.366 217.174 120.528L219.777 123.565C219.863 123.491 219.928 123.437 219.973 123.401C219.996 123.383 220.01 123.372 220.017 123.367C220.025 123.36 220.018 123.366 219.999 123.379L217.78 120.051ZM218.368 119.719C218.18 119.813 217.967 119.926 217.78 120.051L219.999 123.379C219.981 123.391 219.983 123.388 220.016 123.37C220.047 123.353 220.093 123.329 220.157 123.296L218.368 119.719ZM219.045 119.403C218.751 119.501 218.456 119.665 218.27 119.771L220.255 123.244C220.292 123.223 220.324 123.205 220.35 123.191C220.376 123.177 220.394 123.167 220.406 123.162C220.418 123.156 220.417 123.156 220.406 123.161C220.4 123.164 220.39 123.168 220.375 123.174C220.36 123.18 220.338 123.188 220.31 123.198L219.045 119.403ZM204.503 148.619C204.753 148.132 205.097 147.39 205.097 146.626C205.097 146.18 204.975 145.443 204.333 144.872C203.717 144.325 203.006 144.276 202.613 144.298L202.835 148.292C202.691 148.3 202.167 148.299 201.675 147.862C201.158 147.402 201.097 146.838 201.097 146.626C201.097 146.426 201.142 146.335 201.114 146.418C201.093 146.479 201.043 146.599 200.946 146.789L204.503 148.619ZM202.063 152.402C203.111 150.958 203.932 149.698 204.492 148.64L200.957 146.768C200.522 147.589 199.823 148.678 198.825 150.053L202.063 152.402ZM196.51 151.864C196.485 152.073 196.469 152.345 196.506 152.642C196.541 152.919 196.645 153.402 197.017 153.849C197.448 154.369 198.049 154.613 198.617 154.635C199.103 154.653 199.494 154.51 199.716 154.411C200.162 154.212 200.555 153.899 200.85 153.639C201.178 153.351 201.533 152.995 201.911 152.587L198.978 149.867C198.651 150.22 198.397 150.47 198.209 150.635C197.99 150.827 197.964 150.813 198.084 150.759C198.145 150.732 198.397 150.623 198.768 150.637C199.221 150.654 199.73 150.855 200.095 151.295C200.399 151.661 200.46 152.024 200.475 152.143C200.492 152.281 200.479 152.358 200.482 152.331L196.51 151.864ZM197.615 148.606C197.07 149.861 196.648 150.977 196.521 151.786L200.472 152.41C200.51 152.169 200.724 151.488 201.284 150.201L197.615 148.606ZM202.198 144.35C199.914 144.622 198.506 146.558 197.615 148.606L201.284 150.201C202.051 148.436 202.633 148.327 202.67 148.322L202.198 144.35ZM202.724 144.295C202.43 144.295 202.163 144.342 201.949 144.396L202.919 148.276C202.918 148.277 202.902 148.281 202.872 148.285C202.843 148.289 202.792 148.295 202.724 148.295V144.295ZM82.9167 201.558C82.5922 201.552 82.296 201.354 82.1703 201.167C82.1194 201.092 82.2093 201.189 82.2604 201.682C82.3605 202.646 82.2386 204.3 81.776 206.776L85.708 207.511C86.1849 204.958 86.4014 202.833 86.239 201.269C86.1589 200.497 85.9673 199.642 85.4846 198.928C84.9271 198.103 84.0489 197.578 82.9921 197.558L82.9167 201.558ZM80.0346 203.687C80.9555 202.845 81.693 202.272 82.2587 201.92C82.8802 201.534 83.07 201.558 82.9544 201.558V197.558C81.927 197.558 80.9492 198.024 80.1476 198.523C79.2901 199.055 78.3489 199.808 77.3355 200.735L80.0346 203.687ZM60.0324 222.61C65.9241 216.009 72.5591 209.728 79.9415 203.767L77.4286 200.655C69.8889 206.742 63.0942 213.172 57.0482 219.946L60.0324 222.61ZM44.9811 242.485C49.1434 235.847 54.1591 229.221 60.0355 222.606L57.0452 219.95C51.0392 226.71 45.8858 233.513 41.5923 240.36L44.9811 242.485ZM35.3047 262.034C37.5423 255.779 40.7629 249.262 44.9846 242.48L41.5888 240.366C37.2442 247.345 33.888 254.119 31.5385 260.686L35.3047 262.034ZM31.8149 278.194C31.9189 273.697 33.0553 268.321 35.3047 262.034L31.5385 260.686C29.2007 267.221 27.933 273.037 27.816 278.101L31.8149 278.194ZM33.9549 287.366C32.5505 285.457 31.7363 282.493 31.8151 278.184L27.8158 278.111C27.7288 282.866 28.6002 286.837 30.7328 289.737L33.9549 287.366ZM40.095 289.992C37.1254 289.992 35.2022 289.036 33.9462 287.355L30.7416 289.748C32.9121 292.654 36.1563 293.992 40.095 293.992V289.992ZM57.3112 277.34C51.1696 286.199 45.4048 289.992 40.095 289.992V293.992C47.4414 293.992 54.2497 288.776 60.5985 279.619L57.3112 277.34ZM73.584 240.993C68.6967 256.671 63.2576 268.756 57.3108 277.34L60.5988 279.618C66.866 270.572 72.4526 258.063 77.4028 242.184L73.584 240.993ZM81.7748 206.783C79.4093 219.683 76.6775 231.083 73.5843 240.993L77.4025 242.184C80.5544 232.087 83.3216 220.525 85.7092 207.504L81.7748 206.783ZM152.576 155.386C152.558 155.926 152.438 156.448 152.208 156.964L155.864 158.589C156.298 157.612 156.537 156.587 156.574 155.524L152.576 155.386ZM154.006 158.398C154.466 157.638 154.845 157.449 155.06 157.396L154.09 153.515C152.536 153.903 151.396 154.986 150.584 156.326L154.006 158.398ZM153.8 159.081C153.845 158.856 153.938 158.569 154.105 158.214L150.486 156.51C150.211 157.095 149.999 157.692 149.878 158.296L153.8 159.081ZM152.212 157.973C152.465 157.973 152.846 158.045 153.2 158.327C153.541 158.598 153.678 158.921 153.729 159.094C153.776 159.257 153.767 159.35 153.768 159.315C153.769 159.29 153.775 159.213 153.803 159.068L149.876 158.308C149.78 158.805 149.687 159.519 149.887 160.21C150 160.597 150.236 161.08 150.711 161.459C151.201 161.848 151.752 161.973 152.212 161.973V157.973ZM152.234 156.909C151.902 157.599 151.653 157.986 151.502 158.167C151.429 158.256 151.435 158.226 151.531 158.165C151.635 158.099 151.915 157.954 152.323 157.976L152.101 161.97C153.375 162.041 154.214 161.163 154.58 160.722C155.037 160.172 155.452 159.446 155.838 158.644L152.234 156.909Z" fill="white" mask="url(#path-2-outside-1)"/>
</svg>
