<svg width="650" height="650" viewBox="0 0 650 650" fill="none" xmlns="http://www.w3.org/2000/svg">
<g clip-path="url(#clip0)">
<path fill-rule="evenodd" clip-rule="evenodd" d="M327.633 64.0114C384.279 63.3862 435.091 88.6842 485.567 114.359C545.971 145.085 633.742 161.227 648.579 227.266C663.691 294.528 586.234 344.662 550.569 403.688C524.687 446.524 505.705 491.457 468.621 525.102C427.506 562.405 383.167 604.334 327.633 605.954C271.608 607.588 226.503 565.512 180.528 533.507C133.537 500.794 70.3631 474.617 58.5747 418.649C46.8365 362.919 103.915 318.619 124.044 265.334C142.783 215.728 134.486 155.127 172.216 117.818C212.15 78.3286 271.428 64.6316 327.633 64.0114Z" fill="#81A2C0"/>
<path d="M182.464 271.764C181.471 271.174 180.713 272.587 181.593 273.335C185.801 276.913 190.45 282.24 190.181 288.164C189.694 298.872 177.521 322.714 175.086 330.499C173.578 335.322 176.371 343.509 178.714 349.041C178.86 349.385 179.403 349.159 179.294 348.801C177.981 344.453 176.803 338.886 178.278 336.14C180.9 331.257 189.003 312.675 191.506 307.076C193.719 302.125 198.399 281.219 182.464 271.764Z" fill="#EEE2AE"/>
<path d="M288.398 476.229C288.398 476.229 374.899 429.508 383.604 405.985C390.712 386.776 391.019 383.426 390.892 382.843C390.872 382.754 390.81 382.773 390.805 382.864C390.699 384.651 389.572 402.751 386.793 408.65C383.869 414.858 379.652 427.308 288.398 476.229Z" fill="#EEE2AE"/>
<path fill-rule="evenodd" clip-rule="evenodd" d="M250.722 151.998C250.722 151.998 181.977 140.591 171.163 162.205C164.99 174.542 165.864 194.678 166.89 218.303C167.661 236.067 168.518 255.805 166.529 275.684C166.037 280.608 165.51 285.356 164.999 289.952C160.707 328.593 157.618 356.409 186.613 386.075C196.742 396.439 208.259 407.725 219.576 418.815L219.576 418.815C244.504 443.244 268.458 466.718 274.451 477.267C277.648 482.895 280.962 486.353 283.984 489.507C289.198 494.948 293.54 499.481 294.907 512.677C297.068 533.521 272.351 557.452 255.358 558.224C248.074 558.555 243.463 556.191 240 554.416C235.382 552.049 232.803 550.726 228.646 558.224C224.506 565.693 205.454 563.179 184.964 560.475L184.964 560.475C169.457 558.428 153.126 556.273 141.812 558.254C133.997 559.624 124.197 564.756 113.818 570.192C89.3229 583.021 61.6016 597.539 49.123 568.258C40.2585 547.457 50.2399 526.657 59.3007 507.775C68.3991 488.815 76.5694 471.79 63.7982 458.639C38.3086 432.392 24.406 405.373 26.7215 389.162C26.9486 387.574 26.8385 386.508 26.466 385.828C17.0571 392.935 5.28393 404.344 3.04181 418.132C-2.42482 451.765 0.859414 415.57 2.30206 399.671L2.30294 399.661C2.4003 398.588 2.48925 397.608 2.56653 396.748C3.45286 386.885 4.4472 379.383 5.48991 373.73C5.53685 373.189 5.5932 372.629 5.65929 372.05C5.85596 370.335 6.13691 368.444 6.51152 366.364C6.85569 364.45 7.2818 362.374 7.7922 360.126C16.668 321.098 23.9584 307.713 34.5222 288.32L34.5222 288.319C37.7491 282.395 41.2814 275.91 45.2575 267.963C48.2828 261.916 51.3098 254.915 54.6365 247.221L54.6367 247.22L54.6367 247.22C55.0533 246.257 55.4746 245.282 55.9011 244.298C43.5152 254.059 32.9845 260.653 32.9845 260.653L64.9325 224.171C80.2021 191.883 103.308 153.479 149.176 122.061C219.049 74.2001 242.226 63.3943 320.24 95.0442C350.363 93.4999 385.524 96.5886 411.972 124.38C425.852 138.966 439.044 166.949 451.238 192.815C459.292 209.898 466.91 226.059 474.004 236.826C484.431 241.349 495.142 248.702 502.856 260.651C523.67 292.893 535.219 322.751 535.219 322.751C535.219 322.751 517.376 291.619 496.173 269.356C502.65 282.566 509.734 299.609 517.111 317.355L517.111 317.356L517.112 317.359L517.113 317.361C530.712 350.077 545.303 385.181 558.916 403.061C585.951 438.572 595.992 457.099 565.094 467.135C552.279 471.298 544.78 472.14 537.414 472.968C527.022 474.135 516.897 475.272 492.486 485.663C475.494 492.896 460.491 495.773 448.062 498.157C429.983 501.624 417.351 504.046 411.969 517.313C402.885 539.699 368.129 553.596 347.272 551.279C335.605 549.983 322.487 540.957 316.304 530.281C316.353 533.657 316.76 537.077 317.705 540.365C311.851 527.482 311.534 519.202 313.207 514.068C313.993 510.862 315.749 507.773 318.692 504.96C323.345 500.513 328.95 496.277 334.955 491.74C351.879 478.953 371.97 463.772 382.804 434.711C396.352 398.365 395.287 391.611 389.939 357.69C389.494 354.869 389.019 351.859 388.521 348.629C387.766 343.733 387.182 337.842 386.524 331.194L386.523 331.192L386.523 331.19L386.523 331.19C381.524 280.732 372.202 186.634 250.722 151.998Z" fill="#424242"/>
<path d="M174.66 175.334C187.505 147.235 227.622 139.201 234.147 139.939C236.378 141.452 239.341 144.765 233.348 145.908C219.8 150.174 200.995 145.23 174.66 175.334Z" fill="#424242"/>
<path d="M344.43 228.164C347.422 224.069 349.086 217.22 346.043 210.434H352.013C355.642 221.315 351.817 227.43 347.361 231.465C343.919 234.58 351.085 232.626 354.198 241.672C349.07 234.399 336.969 238.379 344.43 228.164Z" fill="#424242"/>
</g>
<defs>
<clipPath id="clip0">
<path d="M0 0H650V650H0V0Z" fill="white"/>
</clipPath>
</defs>
</svg>
