<svg width="41" height="41" viewBox="0 0 41 41" fill="none" xmlns="http://www.w3.org/2000/svg">
<path fill-rule="evenodd" clip-rule="evenodd" d="M9.11083 3.45483C12.482 1.20239 16.4456 0 20.5001 0C23.1922 0 25.8579 0.530273 28.3451 1.56055C30.8323 2.59058 33.0922 4.10059 34.9958 6.00439C36.8994 7.90796 38.4095 10.1677 39.4397 12.655C40.4699 15.1421 41.0001 17.8079 41.0001 20.5C41.0001 24.5547 39.7978 28.5181 37.5452 31.8892C35.2927 35.2605 32.091 37.8879 28.3451 39.4397C24.5992 40.9912 20.4774 41.3972 16.5007 40.6062C12.5241 39.8152 8.87133 37.8628 6.00433 34.9958C3.13732 32.1289 1.18493 28.4761 0.393915 24.4995C-0.3971 20.5227 0.0089054 16.4009 1.56048 12.655C3.11205 8.90918 5.73962 5.70752 9.11083 3.45483ZM30.6166 27.4939C30.9273 26.6643 31.0951 25.7881 31.1129 24.9023C31.1649 23.7634 31.1772 23.3997 31.1772 20.5C31.1772 17.6003 31.1649 17.2368 31.1129 16.0979C31.0951 15.2122 30.9273 14.3357 30.6166 13.5061C30.3423 12.7969 29.9229 12.1526 29.3852 11.615C28.8475 11.0771 28.2033 10.6577 27.494 10.3835C26.6644 10.0728 25.788 9.90503 24.9023 9.88721C23.7634 9.83521 23.3998 9.823 20.5001 9.823C17.6003 9.823 17.2367 9.83521 16.0978 9.88721C15.2121 9.90503 14.3357 10.0728 13.5061 10.3835C12.7968 10.6577 12.1526 11.0771 11.6149 11.615C11.0772 12.1526 10.6578 12.7969 10.3835 13.5061C10.0728 14.3357 9.90496 15.2122 9.8872 16.0979C9.8352 17.2368 9.82293 17.6003 9.82293 20.5C9.82293 23.3997 9.8352 23.7634 9.8872 24.9023C9.90502 25.7881 10.0728 26.6643 10.3835 27.4939C10.6578 28.2034 11.0772 28.8474 11.6149 29.3853C12.1527 29.9229 12.7968 30.3423 13.5061 30.6167C14.3357 30.9272 15.2121 31.0952 16.0978 31.1128C17.2367 31.1648 17.6003 31.1772 20.5001 31.1772C23.3998 31.1772 23.7634 31.1648 24.9023 31.1128C25.7881 31.095 26.6644 30.9272 27.494 30.6165C28.2033 30.3423 28.8475 29.9229 29.3852 29.385C29.9229 28.8474 30.3423 28.2031 30.6166 27.4939ZM28.8234 14.2029C28.6457 13.7422 28.3737 13.3242 28.0247 12.9751C27.6757 12.6262 27.2575 12.354 26.7971 12.1765C26.1622 11.9412 25.4916 11.8169 24.8145 11.8088C23.6885 11.7573 23.3509 11.7466 20.5 11.7466C17.649 11.7466 17.3115 11.7573 16.1855 11.8088C15.5084 11.8167 14.8378 11.9412 14.2029 12.1765C13.7425 12.354 13.3243 12.6262 12.9753 12.9751C12.6263 13.3242 12.3542 13.7422 12.1766 14.2026C11.9413 14.8376 11.8169 15.5083 11.8089 16.1853C11.7576 17.3113 11.7468 17.6489 11.7468 20.4998C11.7468 23.3506 11.7576 23.6882 11.8089 24.8142C11.8169 25.4915 11.9413 26.1619 12.1766 26.7969C12.3542 27.2573 12.6263 27.6755 12.9753 28.0244C13.3243 28.3735 13.7425 28.6455 14.2029 28.8232C14.8378 29.0586 15.5084 29.1829 16.1855 29.1909C17.3112 29.2422 17.6489 29.2529 20.5 29.2529C23.3511 29.2529 23.6888 29.2422 24.8145 29.1909C25.4916 29.1829 26.1622 29.0586 26.7971 28.8232C27.2575 28.6455 27.6757 28.3735 28.0247 28.0244C28.3737 27.6755 28.6457 27.2573 28.8234 26.7969C29.0587 26.1619 29.183 25.4915 29.1911 24.8142C29.2423 23.6882 29.2532 23.3508 29.2532 20.4998C29.2532 19.2292 29.2511 18.4578 29.2441 17.8933C29.2355 17.1914 29.2195 16.8093 29.1911 16.1853C29.183 15.5083 29.0586 14.8376 28.8234 14.2029ZM20.5 25.9827C19.4156 25.9827 18.3555 25.6611 17.4539 25.0586C16.5522 24.4561 15.8495 23.5999 15.4345 22.5979C15.0195 21.5962 14.9109 20.4937 15.1225 19.4302C15.334 18.3667 15.8563 17.3896 16.623 16.6228C17.3898 15.856 18.3668 15.334 19.4304 15.1223C20.4939 14.9106 21.5963 15.0193 22.5982 15.4343C23.6 15.8494 24.4564 16.552 25.0588 17.4536C25.6613 18.3555 25.9828 19.4153 25.9828 20.4998C25.9828 21.2197 25.8411 21.9329 25.5655 22.5979C25.29 23.2632 24.8861 23.8677 24.3769 24.3767C23.8679 24.886 23.2634 25.2898 22.5982 25.5652C21.933 25.8408 21.22 25.9827 20.5 25.9827ZM26.1995 16.0815C26.0969 16.0815 25.9954 16.0693 25.8968 16.0454C25.7517 16.0103 25.6131 15.9497 25.4876 15.8657C25.2769 15.7249 25.1127 15.5249 25.0157 15.2908C24.9188 15.0566 24.8934 14.7988 24.9428 14.5503C24.9922 14.3018 25.1143 14.0735 25.2935 13.8943C25.4727 13.7151 25.7009 13.5933 25.9495 13.5437C26.198 13.4944 26.4556 13.5198 26.6898 13.6167C26.9239 13.7136 27.124 13.8779 27.2648 14.0886C27.4056 14.2993 27.4807 14.5469 27.4807 14.8003C27.4807 15.1401 27.3457 15.4661 27.1054 15.7063C26.8652 15.9465 26.5392 16.0815 26.1995 16.0815ZM20.5 24.0591C22.4656 24.0591 24.0591 22.4656 24.0591 20.5C24.0591 18.5344 22.4656 16.9409 20.5 16.9409C18.5344 16.9409 16.9409 18.5344 16.9409 20.5C16.9409 22.4656 18.5344 24.0591 20.5 24.0591Z" fill="#122B45"/>
</svg>
