<svg width="81" height="81" viewBox="0 0 81 81" fill="none" xmlns="http://www.w3.org/2000/svg">
<path fill-rule="evenodd" clip-rule="evenodd" d="M79.331 33.4785C80.6023 48.01 69.8529 60.8206 55.3214 62.092C44.9783 62.9969 35.5069 57.8117 30.448 49.5075C30.2672 49.2108 29.9182 49.0581 29.5798 49.1365C29.0674 49.255 28.8115 49.8317 29.0844 50.2814C34.4373 59.1018 44.4845 64.6129 55.458 63.6528C70.8515 62.3061 82.2386 48.7354 80.8918 33.342C79.5451 17.9485 65.9744 6.56139 50.581 7.90814C38.4255 8.97161 28.7682 17.6573 25.9063 28.8438C25.7759 29.3536 26.1889 29.8312 26.7139 29.7952C27.0602 29.7714 27.3495 29.5237 27.4362 29.1875C30.152 18.649 39.259 10.4715 50.7175 9.46899C65.249 8.19766 78.0596 18.9471 79.331 33.4785ZM64.5909 25.6815C65.6653 24.4877 66.777 23.8909 67.926 23.8909C68.2244 23.8909 68.508 23.9655 68.7766 24.1147C69.0452 24.2639 69.2354 24.4616 69.3473 24.7078C69.5413 25.1182 69.56 25.6591 69.4033 26.3306C69.1645 27.3826 68.5266 28.7368 67.4895 30.3931C66.251 32.3778 64.7924 34.243 63.1136 35.9889C62.9868 36.1157 62.6958 36.3657 62.2407 36.7387C61.6364 37.2312 61.3342 37.5296 61.3342 37.6341C61.3342 37.7534 61.6289 37.7199 62.2183 37.5333C62.6809 37.5333 63.1398 37.6937 63.5949 38.0146C63.7068 38.0892 63.815 38.1712 63.9194 38.2608C64.0239 38.3503 64.1507 38.4622 64.2999 38.5965C64.4492 38.7234 64.5462 38.8054 64.5909 38.8427C64.9714 39.1785 65.3296 39.4284 65.6653 39.5926C66.0085 39.7567 66.4301 39.8388 66.93 39.8388C67.7581 39.8388 68.5826 39.6187 69.4033 39.1785C70.224 38.7383 70.9626 38.1862 71.6192 37.5221C71.7386 37.4028 71.8691 37.3356 72.0109 37.3207C72.1527 37.3058 72.2795 37.3356 72.3914 37.4102C72.5033 37.4774 72.5929 37.5669 72.66 37.6788C72.7346 37.7833 72.7607 37.9101 72.7384 38.0593C72.7234 38.2011 72.6563 38.3279 72.5369 38.4398C72.1788 38.798 71.8057 39.13 71.4178 39.4359C71.0298 39.7343 70.597 40.0178 70.1195 40.2864C69.642 40.5476 69.1272 40.7565 68.5751 40.9132C68.0305 41.0624 67.4821 41.137 66.93 41.137C66.2659 41.137 65.6802 41.0176 65.1729 40.7789C64.6655 40.5327 64.188 40.2156 63.7404 39.8276C63.2181 39.3725 62.9197 39.1225 62.845 39.0778C62.6212 38.9211 62.4123 38.8427 62.2183 38.8427C61.7781 38.8427 61.364 39.074 60.9761 39.5366C60.6552 39.9246 60.3456 40.4842 60.0472 41.2153C59.9576 41.4466 59.801 41.5847 59.5771 41.6294C59.3533 41.6667 59.1593 41.6108 58.9952 41.4616C58.845 41.3244 58.7777 41.1559 58.7932 40.956C58.4046 41.3899 57.9953 41.786 57.5654 42.1442C57.1252 42.5247 56.6179 42.8866 56.0434 43.2298C55.4689 43.5805 54.8683 43.8752 54.2416 44.1139C53.6223 44.3527 52.9284 44.5429 52.1599 44.6847C51.3915 44.8265 50.5894 44.8973 49.7538 44.8973C48.2317 44.8973 47.0118 44.5914 46.0941 43.9796C45.2137 43.3902 44.6355 42.5471 44.3595 41.4504C44.191 40.7817 44.1465 40.0134 44.226 39.1457C44.1099 39.2088 43.9992 39.2682 43.8937 39.324C43.5057 39.5329 43.0133 39.7716 42.4164 40.0402C41.8195 40.3014 41.2562 40.5103 40.7265 40.667C40.1968 40.8162 39.5887 40.9467 38.9023 41.0587C38.2233 41.1706 37.5369 41.2265 36.843 41.2265C35.5001 41.2265 34.4555 40.8609 33.7094 40.1298C33.3097 39.7226 33.0275 39.2458 32.8628 38.6991C28.4816 39.9058 24.3436 41.666 20.4489 43.9796C20.0833 44.196 19.8072 44.3602 19.6207 44.4721C19.4342 44.584 19.2252 44.7257 18.994 44.8973C18.7627 45.069 18.5948 45.207 18.4903 45.3114C18.3933 45.4159 18.274 45.5688 18.1322 45.7703C17.9905 45.9717 17.8935 46.1545 17.8412 46.3187C17.789 46.4828 17.7219 46.7104 17.6398 47.0014C17.5577 47.2998 17.4943 47.5945 17.4495 47.8855C17.4048 48.1839 17.3488 48.5644 17.2817 49.027C16.6176 52.7128 15.8156 56.0702 14.8755 59.0994C13.5027 63.4865 11.9545 66.926 10.231 69.418C8.29113 72.2233 6.23935 73.626 4.07566 73.626C3.41163 73.626 2.81102 73.4991 2.27383 73.2455C1.73663 72.9918 1.2927 72.6337 0.942034 72.1711C0.285465 71.2907 -0.0278977 70.0895 0.00194635 68.5674C0.0317904 67.1051 0.371267 65.4636 1.02037 63.6431C1.67694 61.8301 2.61703 59.9462 3.84064 57.9914C5.04186 56.059 6.49676 54.1453 8.20533 52.2502C9.92136 50.3551 11.8538 48.5532 14.0025 46.8447C14.0175 46.8372 14.0398 46.8186 14.0697 46.7887C14.3457 46.5723 14.5472 46.4119 14.674 46.3075C14.8083 46.203 14.9799 46.0575 15.1888 45.871C15.4052 45.6919 15.5582 45.5539 15.6477 45.4569C15.7447 45.3599 15.8678 45.2294 16.017 45.0652C16.1662 44.9011 16.2707 44.7556 16.3304 44.6287C16.3975 44.5094 16.4759 44.3639 16.5654 44.1923C16.6624 44.0207 16.7295 43.8453 16.7668 43.6663C16.8116 43.4947 16.8526 43.3007 16.89 43.0843C16.9273 42.8754 16.9571 42.6479 16.9795 42.4016C17.4943 38.1414 17.7517 33.9893 17.7517 29.9455C17.7442 29.7664 17.8039 29.6135 17.9308 29.4866C18.0576 29.3598 18.2106 29.2926 18.3896 29.2852C18.5687 29.2852 18.7216 29.3523 18.8485 29.4866C18.9828 29.6135 19.0499 29.7664 19.0499 29.9455C19.0499 33.5417 18.8298 37.3281 18.3896 41.3049C18.3523 41.6406 18.3225 41.9017 18.3001 42.0883C18.2852 42.2748 18.2814 42.4651 18.2889 42.659C18.2964 42.853 18.315 42.9873 18.3449 43.0619C18.3747 43.144 18.4307 43.2112 18.5127 43.2634C18.5948 43.3156 18.6918 43.3268 18.8037 43.297C18.9156 43.2746 19.0648 43.2224 19.2514 43.1403C19.4453 43.0582 19.6543 42.95 19.8781 42.8157C20.1094 42.6814 20.3892 42.5098 20.7175 42.3009C24.4815 40.1804 28.4729 38.547 32.6916 37.4006C32.6958 37.266 32.7068 37.1312 32.7246 36.9961C32.7992 36.4216 32.9745 35.8621 33.2506 35.3174C33.4669 34.9518 33.7281 34.6571 34.034 34.4333C34.3473 34.202 34.6943 34.0863 35.0748 34.0863C35.4105 34.0863 35.6903 34.1908 35.9141 34.3997C36.1156 34.5862 36.2424 34.8324 36.2947 35.1383C36.3618 35.5785 36.2723 36.0747 36.0261 36.6268C35.9365 36.8133 35.8171 36.9924 35.6679 37.164C35.5187 37.3281 35.3732 37.4662 35.2315 37.5781C35.0897 37.6825 34.9517 37.7982 34.8174 37.925C34.6831 38.0519 34.5786 38.1712 34.504 38.2832C34.4369 38.3951 34.407 38.5294 34.4145 38.6861C34.4294 38.8427 34.5003 39.0143 34.6271 39.2009C35.1121 39.6858 35.8507 39.9283 36.843 39.9283C37.4772 39.9283 38.1002 39.8798 38.712 39.7828C39.3313 39.6784 39.8797 39.559 40.3572 39.4247C40.8421 39.2829 41.3607 39.0889 41.9128 38.8427C42.4649 38.5965 42.9275 38.3764 43.3005 38.1824C43.6401 37.9991 44.0445 37.7694 44.5138 37.4934C44.7476 36.4337 45.0543 35.4435 45.4338 34.5228C45.4488 34.493 45.4674 34.4482 45.4898 34.3885C45.7882 33.717 45.8517 33.3141 45.68 33.1798C45.5084 33.0455 44.8183 33.0008 43.6096 33.0455C43.438 33.0604 43.2925 33.0269 43.1731 32.9448C43.0538 32.8627 42.9792 32.7583 42.9493 32.6314C42.912 32.5046 42.9008 32.3778 42.9157 32.2509C42.9307 32.1166 42.9941 32.001 43.106 31.904C43.2179 31.807 43.3559 31.7548 43.5201 31.7473L45.0197 31.6466C45.3555 31.6466 45.6539 31.6205 45.9151 31.5682C46.1762 31.5086 46.3926 31.4377 46.5642 31.3556C46.7432 31.2661 46.9148 31.1355 47.079 30.9639C47.2431 30.7923 47.3774 30.6319 47.4819 30.4827C47.5863 30.326 47.7169 30.1133 47.8736 29.8448C48.3138 29.136 48.7652 28.4757 49.2278 27.8639C49.9291 26.9312 50.5782 26.1889 51.1751 25.6367C51.4288 25.398 51.6265 25.2227 51.7682 25.1107C51.91 24.9988 52.0891 24.8944 52.3054 24.7974C52.5293 24.6929 52.7531 24.6407 52.9769 24.6407C53.1336 24.6407 53.2903 24.678 53.447 24.7526C53.6036 24.8198 53.7305 24.9167 53.8275 25.0436C53.9842 25.26 54.0513 25.5323 54.0289 25.8606C53.9991 26.256 53.8237 26.7895 53.5029 27.461C53.2045 28.0802 52.7829 28.8263 52.2383 29.6993C52.0816 29.9529 51.9622 30.1507 51.8802 30.2924C51.7981 30.4267 51.7309 30.5647 51.6787 30.7065C51.6339 30.8408 51.6227 30.9378 51.6451 30.9975C51.675 31.0497 51.7347 31.0982 51.8242 31.143C51.9137 31.1803 52.0406 31.1952 52.2047 31.1877C52.3689 31.1803 52.5815 31.1616 52.8426 31.1318L54.7228 31.0087H54.7564C54.9653 31.0012 55.1332 31.0721 55.26 31.2213C55.3943 31.3705 55.4465 31.5459 55.4167 31.7473C55.3943 31.9413 55.2936 32.0942 55.1145 32.2062L54.0737 32.8553C53.8797 32.9821 53.6745 33.0008 53.4582 32.9112C53.2493 32.8142 53.1224 32.6501 53.0776 32.4188L51.6451 32.5083C51.4437 32.5233 51.287 32.5344 51.1751 32.5419C51.0632 32.5494 50.9401 32.568 50.8058 32.5979C50.6715 32.6202 50.5782 32.6352 50.526 32.6426C50.4812 32.6426 50.4066 32.6725 50.3022 32.7322C50.2052 32.7919 50.1455 32.8292 50.1231 32.8441C50.1007 32.859 50.041 32.9224 49.944 33.0343C49.8545 33.1388 49.7985 33.2134 49.7761 33.2582C49.7538 33.2955 49.6829 33.3999 49.5635 33.5715C49.4441 33.7431 49.3546 33.87 49.2949 33.952C48.713 34.7354 48.1534 35.4592 47.6162 36.1232C47.1088 36.7574 46.6724 37.2759 46.3068 37.6788C46.1426 37.8504 46.0046 38.0146 45.8927 38.1712C45.7882 38.3279 45.7062 38.4958 45.6465 38.6749C45.5868 38.8539 45.542 39.0143 45.5122 39.1561C45.4823 39.2979 45.4711 39.4881 45.4786 39.7269C45.4935 39.9656 45.5084 40.1745 45.5234 40.3536L45.6241 41.1258C45.8181 41.9018 46.2135 42.4912 46.8104 42.8941C47.5117 43.3641 48.4929 43.5991 49.7538 43.5991C50.5148 43.5991 51.2422 43.5357 51.9361 43.4089C52.6374 43.282 53.2642 43.1142 53.8163 42.9053C54.3759 42.6963 54.9093 42.4352 55.4167 42.1218C55.9315 41.8159 56.3829 41.4951 56.7709 41.1594C57.1588 40.8236 57.5319 40.4506 57.89 40.0402C58.2556 39.6224 58.5652 39.227 58.8189 38.8539C59.0185 38.5687 59.2138 38.2661 59.4047 37.946C59.5913 37.1713 59.798 36.407 60.0248 35.6532C60.5396 33.967 61.2074 32.0308 62.0281 29.8448C62.8413 28.0616 63.6956 26.6738 64.5909 25.6815ZM68.0491 25.1891H67.926C67.1575 25.1891 66.3666 25.6442 65.5534 26.5544C64.7476 27.4423 63.9679 28.7181 63.2144 30.3819C62.3489 32.2994 61.9124 33.5753 61.905 34.2094C61.8975 34.769 62.2071 34.7765 62.8339 34.2318C63.7217 33.4633 64.908 31.9562 66.3928 29.7105C67.3478 28.1735 67.9297 26.9499 68.1386 26.0396C68.2282 25.6666 68.2394 25.4092 68.1722 25.2674C68.1677 25.2629 68.1631 25.2569 68.1585 25.2495C68.1556 25.2449 68.1527 25.2396 68.1498 25.2338V25.2115C68.1498 25.204 68.1386 25.2003 68.1163 25.2003C68.1013 25.1928 68.0789 25.1891 68.0491 25.1891ZM52.5628 26.2411C52.4584 26.5768 52.38 26.7969 52.3278 26.9014C51.9697 27.6549 51.4064 28.6211 50.6379 29.8C50.6081 29.8448 50.5521 29.9231 50.47 30.035C50.388 30.1469 50.332 30.2215 50.3022 30.2588C50.2798 30.2887 50.235 30.3521 50.1679 30.4491C50.1007 30.5386 50.0522 30.5983 50.0224 30.6282C49.9925 30.658 49.9478 30.7102 49.8881 30.7848C49.8284 30.852 49.7761 30.8968 49.7314 30.9191C49.6941 30.9415 49.6456 30.9751 49.5859 31.0199C49.5262 31.0646 49.4702 31.0945 49.418 31.1094C49.3658 31.1243 49.3061 31.143 49.239 31.1653C49.1718 31.1803 49.1009 31.1877 49.0263 31.1877C48.5414 31.1877 48.9331 30.3708 50.2014 28.7368C50.2313 28.692 50.2537 28.6622 50.2686 28.6473C50.9177 27.7743 51.5146 27.0879 52.0592 26.588C52.1264 26.5283 52.1861 26.4798 52.2383 26.4425C52.2905 26.3978 52.3278 26.3679 52.3502 26.353C52.3726 26.3381 52.4062 26.3194 52.4509 26.297C52.5031 26.2672 52.5405 26.2485 52.5628 26.2411ZM47.9855 32.9896C48.1198 32.9821 48.1198 33.1089 47.9855 33.3701C47.8512 33.6238 47.646 33.9408 47.37 34.3214C46.9895 34.7317 46.8141 34.8101 46.844 34.5564C46.8664 34.4146 46.9522 34.1721 47.1014 33.8289C47.3252 33.3141 47.5938 33.0381 47.9072 33.0008C47.937 32.9933 47.9631 32.9896 47.9855 32.9896ZM15.8603 49.4187C16.114 48.0608 16.0431 47.3781 15.6477 47.3707C15.4015 47.3707 15.0172 47.6094 14.495 48.0869C12.4805 49.7134 10.6675 51.4295 9.05589 53.235C7.45177 55.0406 6.07894 56.8536 4.93741 58.6741C3.78095 60.5319 2.89309 62.3263 2.27383 64.0572C1.65456 65.7882 1.33001 67.299 1.30016 68.5898C1.27778 69.8134 1.50534 70.7498 1.98285 71.3989C2.44543 72.0181 3.14303 72.3278 4.07566 72.3278C5.78423 72.3278 7.48161 71.1116 9.1678 68.6793C10.8167 66.2993 12.3052 62.9791 13.6332 58.7189C14.4763 56.018 15.2187 52.9179 15.8603 49.4187ZM34.8398 36.0896C34.9293 35.8882 34.9778 35.6793 34.9852 35.4629C34.7465 35.5226 34.5413 35.6942 34.3697 35.9777C34.31 36.1045 34.269 36.2239 34.2466 36.3358C34.2018 36.5671 34.2354 36.6828 34.3473 36.6828C34.4816 36.6902 34.6458 36.4925 34.8398 36.0896Z" fill="#424242"/>
</svg>
